<svg width="18" height="18" viewBox="0 0 18 18" fill="none" xmlns="http://www.w3.org/2000/svg">
<path fill-rule="evenodd" clip-rule="evenodd" d="M16 5.45412C16 4.39293 14.9282 3.66729 13.9429 4.06141L9.2751 5.92854C9.15698 5.97578 9.03093 6.00006 8.90371 6.00006H4.5C3.83696 6.00006 3.20107 6.26345 2.73223 6.73229C2.26339 7.20113 2 7.83702 2 8.50006C2 9.1631 2.26339 9.79899 2.73223 10.2678C3.20107 10.7367 3.83696 11.0001 4.5 11.0001H5.29073L7.99583 15.7527L7.12674 16.2474L4.70927 12.0001H4.5C3.57174 12.0001 2.6815 11.6313 2.02513 10.9749C1.36875 10.3186 1 9.42832 1 8.50006C1 7.5718 1.36875 6.68156 2.02513 6.02519C2.6815 5.36881 3.57174 5.00006 4.5 5.00006L8.90371 5.00006L13.5715 3.13293C15.2137 2.47607 17 3.68546 17 5.45412V11.546C17 13.3147 15.2137 14.524 13.5715 13.8672L8.90371 12.0001H8V11.0001H8.90371C9.03093 11.0001 9.15698 11.0243 9.2751 11.0716L13.9429 12.9387C14.9282 13.3328 16 12.6072 16 11.546V5.45412Z" fill="#24242B"/>
</svg>
