<svg width="18" height="18" viewBox="0 0 18 18" fill="none" xmlns="http://www.w3.org/2000/svg">
<path fill-rule="evenodd" clip-rule="evenodd" d="M9 3C8.44772 3 8 3.44772 8 4C8 4.55228 8.44772 5 9 5C9.55229 5 10 4.55228 10 4C10 3.44772 9.55229 3 9 3ZM7 4C7 2.89543 7.89543 2 9 2C10.1046 2 11 2.89543 11 4C11 4.93192 10.3626 5.71497 9.5 5.93699V7H12.5C14.433 7 16 8.567 16 10.5V12.5C16 14.433 14.433 16 12.5 16H5.5C3.567 16 2 14.433 2 12.5V10.5C2 8.567 3.567 7 5.5 7H8.5V5.93699C7.63739 5.71497 7 4.93192 7 4ZM5.5 8C4.11929 8 3 9.11929 3 10.5V12.5C3 13.8807 4.11929 15 5.5 15H12.5C13.8807 15 15 13.8807 15 12.5V10.5C15 9.11929 13.8807 8 12.5 8H5.5ZM6.5 11C6.22386 11 6 11.2239 6 11.5C6 11.7761 6.22386 12 6.5 12C6.77614 12 7 11.7761 7 11.5C7 11.2239 6.77614 11 6.5 11ZM5 11.5C5 10.6716 5.67157 10 6.5 10C7.32843 10 8 10.6716 8 11.5C8 12.3284 7.32843 13 6.5 13C5.67157 13 5 12.3284 5 11.5ZM11.5 11C11.2239 11 11 11.2239 11 11.5C11 11.7761 11.2239 12 11.5 12C11.7761 12 12 11.7761 12 11.5C12 11.2239 11.7761 11 11.5 11ZM10 11.5C10 10.6716 10.6716 10 11.5 10C12.3284 10 13 10.6716 13 11.5C13 12.3284 12.3284 13 11.5 13C10.6716 13 10 12.3284 10 11.5Z" fill="#24242B"/>
</svg>
