<svg width="18" height="18" viewBox="0 0 18 18" fill="none" xmlns="http://www.w3.org/2000/svg">
<path d="M14 1.5C14 1.22386 14.2239 1 14.5 1C14.7761 1 15 1.22386 15 1.5V3H16.5C16.7761 3 17 3.22386 17 3.5C17 3.77614 16.7761 4 16.5 4H15V5.5C15 5.77614 14.7761 6 14.5 6C14.2239 6 14 5.77614 14 5.5V4H12.5C12.2239 4 12 3.77614 12 3.5C12 3.22386 12.2239 3 12.5 3H14V1.5Z" fill="#24242B"/>
<path d="M11 3C10.476 3 9.95575 3.10298 9.46927 3.30448C8.86154 3.55621 8.32527 3.95394 7.90796 4.46243C7.49065 4.97092 7.20519 5.57448 7.07686 6.21964C6.94853 6.8648 6.98129 7.53166 7.17224 8.16114L7.17713 8.17713L7.16114 8.17224C6.53166 7.98129 5.8648 7.94853 5.21964 8.07686C4.57448 8.20519 3.97092 8.49065 3.46243 8.90796C2.95394 9.32527 2.55621 9.86154 2.30448 10.4693C2.05275 11.077 1.95479 11.7374 2.01926 12.3921C2.08374 13.0467 2.30867 13.6753 2.67412 14.2223C3.03958 14.7692 3.53428 15.2176 4.11441 15.5277C4.69455 15.8378 5.3422 16 6 16H15V7H14V15H6C5.50665 15 5.02091 14.8783 4.58581 14.6458C4.15071 14.4132 3.77968 14.0769 3.50559 13.6667C3.2315 13.2565 3.0628 12.785 3.01445 12.2941C2.96609 11.8031 3.03956 11.3077 3.22836 10.852C3.41716 10.3962 3.71545 9.99395 4.09682 9.68097C4.47819 9.36799 4.93086 9.15389 5.41473 9.05765C5.8986 8.9614 6.39875 8.98597 6.87085 9.12918C7.33324 9.26944 7.75476 9.51928 8.09967 9.85725C8.30708 10.0605 8.64341 10.0637 8.85355 9.85356C9.06369 9.64342 9.06049 9.30708 8.85725 9.09967C8.51928 8.75476 8.26944 8.33324 8.12918 7.87085C7.98597 7.39875 7.9614 6.8986 8.05765 6.41473C8.15389 5.93086 8.36799 5.47819 8.68097 5.09682C8.99395 4.71545 9.39615 4.41716 9.85195 4.22836C10.2168 4.07723 10.607 4 11 4V3Z" fill="#24242B"/>
</svg>
