<svg width="18" height="18" viewBox="0 0 18 18" fill="none" xmlns="http://www.w3.org/2000/svg">
<path d="M13.2041 1.01074C14.2128 1.113 15 1.96435 15 3V14L14.9951 14.1025C14.9472 14.573 14.573 14.9472 14.1025 14.9951L14 15H4.08691C4.29297 15.5823 4.84707 16 5.5 16H14.5C14.7761 16 15 16.2239 15 16.5C15 16.7761 14.7761 17 14.5 17H5.5C4.11929 17 3 15.8807 3 14.5V3C3 1.89543 3.89543 1 5 1H13L13.2041 1.01074ZM5 2C4.44772 2 4 2.44772 4 3V14H14V3C14 2.48232 13.6067 2.05621 13.1025 2.00488L13 2H12V9.04297L11.2783 8.68555L9 7.55762L6.72168 8.68555L6 9.04297V2H5ZM7 7.43164L8.77832 6.55176L9 6.44238L9.22168 6.55176L11 7.43164V2H7V7.43164Z" fill="#24242B"/>
</svg>
