<svg width="18" height="18" viewBox="0 0 18 18" fill="none" xmlns="http://www.w3.org/2000/svg">
<path fill-rule="evenodd" clip-rule="evenodd" d="M6.32122 2.53284C7.1705 2.18106 8.08075 2 9 2C9.91925 2 10.8295 2.18106 11.6788 2.53284C12.5281 2.88463 13.2997 3.40024 13.9497 4.05025C14.5998 4.70026 15.1154 5.47194 15.4672 6.32122C15.8189 7.1705 16 8.08075 16 9V13.5C16 14.8807 14.8807 16 13.5 16H12C11.4477 16 11 15.5523 11 15V11C11 10.4477 11.4477 10 12 10H15V9C15 8.21207 14.8448 7.43185 14.5433 6.7039C14.2417 5.97595 13.7998 5.31451 13.2426 4.75736C12.6855 4.20021 12.0241 3.75825 11.2961 3.45672C10.5681 3.15519 9.78793 3 9 3C8.21207 3 7.43185 3.15519 6.7039 3.45672C5.97595 3.75825 5.31451 4.20021 4.75736 4.75736C4.20021 5.31451 3.75825 5.97595 3.45672 6.7039C3.15519 7.43185 3 8.21207 3 9V10H6C6.55228 10 7 10.4477 7 11V15C7 15.5523 6.55228 16 6 16H4.5C3.11929 16 2 14.8807 2 13.5V9C2 8.08075 2.18106 7.1705 2.53284 6.32122C2.88463 5.47194 3.40024 4.70026 4.05025 4.05025C4.70026 3.40024 5.47194 2.88463 6.32122 2.53284ZM15 13.5V11H12V15H13.5C14.3284 15 15 14.3284 15 13.5ZM3 11V13.5C3 14.3284 3.67157 15 4.5 15H6V11H3Z" fill="#24242B"/>
</svg>
