<svg width="18" height="18" viewBox="0 0 18 18" fill="none" xmlns="http://www.w3.org/2000/svg">
<path d="M11.2244 7.96008C11.7618 8.2405 11.7618 9.00948 11.2244 9.2899L7.84673 11.0525C7.3474 11.3131 6.74975 10.9508 6.74975 10.3876L6.74975 6.86234C6.74975 6.29911 7.34741 5.93686 7.84673 6.19743L11.2244 7.96008Z" fill="#24242B"/>
<path d="M7.5 14C7.22386 14 7 14.2239 7 14.5C7 14.7761 7.22386 15 7.5 15H10.5C10.7761 15 11 14.7761 11 14.5C11 14.2239 10.7761 14 10.5 14H7.5Z" fill="#24242B"/>
<path fill-rule="evenodd" clip-rule="evenodd" d="M3 3.5C3 2.11929 4.11929 1 5.5 1H12.5C13.8807 1 15 2.11929 15 3.5V14.5C15 15.8807 13.8807 17 12.5 17H5.5C4.11929 17 3 15.8807 3 14.5V3.5ZM5.5 2C4.67157 2 4 2.67157 4 3.5V14.5C4 15.3284 4.67157 16 5.5 16H12.5C13.3284 16 14 15.3284 14 14.5V3.5C14 2.67157 13.3284 2 12.5 2H5.5Z" fill="#24242B"/>
</svg>
