<svg width="18" height="18" viewBox="0 0 18 18" fill="none" xmlns="http://www.w3.org/2000/svg">
<path fill-rule="evenodd" clip-rule="evenodd" d="M6.52513 2.02513C7.1815 1.36875 8.07174 1 9 1C9.92826 1 10.8185 1.36875 11.4749 2.02513C12.1313 2.6815 12.5 3.57174 12.5 4.5V5.5H13.5C14.4283 5.5 15.3185 5.86875 15.9749 6.52513C16.6313 7.1815 17 8.07174 17 9C17 9.92826 16.6313 10.8185 15.9749 11.4749C15.3185 12.1313 14.4283 12.5 13.5 12.5H12.5V13.5C12.5 14.4283 12.1313 15.3185 11.4749 15.9749C10.8185 16.6313 9.92826 17 9 17C8.07174 17 7.1815 16.6313 6.52513 15.9749C5.9977 15.4474 5.656 14.769 5.54209 14.0412C5.51423 13.8633 5.5 13.6824 5.5 13.5V12.5H4.5C3.57174 12.5 2.6815 12.1313 2.02513 11.4749C1.36875 10.8185 1 9.92826 1 9C1 8.07174 1.36875 7.1815 2.02513 6.52513C2.6815 5.86875 3.57174 5.5 4.5 5.5H5.5V4.5C5.5 3.57174 5.86875 2.6815 6.52513 2.02513ZM5.5 6.5H4.5C3.83696 6.5 3.20107 6.76339 2.73223 7.23223C2.26339 7.70107 2 8.33696 2 9C2 9.66304 2.26339 10.2989 2.73223 10.7678C3.20107 11.2366 3.83696 11.5 4.5 11.5H5.5V6.5ZM6.5 6.5H11.5V11.5H7.79289L6.5 12.7929V6.5ZM6.57994 14.1272C6.69085 14.5551 6.91432 14.9499 7.23223 15.2678C7.70107 15.7366 8.33696 16 9 16C9.66304 16 10.2989 15.7366 10.7678 15.2678C11.2366 14.7989 11.5 14.163 11.5 13.5V12.5H8.20711L6.57994 14.1272ZM12.5 11.5H13.5C14.163 11.5 14.7989 11.2366 15.2678 10.7678C15.7366 10.2989 16 9.66304 16 9C16 8.33696 15.7366 7.70107 15.2678 7.23223C14.7989 6.76339 14.163 6.5 13.5 6.5H12.5V11.5ZM11.5 5.5H6.5V4.5C6.5 3.83696 6.76339 3.20107 7.23223 2.73223C7.70107 2.26339 8.33696 2 9 2C9.66304 2 10.2989 2.26339 10.7678 2.73223C11.2366 3.20107 11.5 3.83696 11.5 4.5V5.5Z" fill="#24242B"/>
</svg>
