<svg width="18" height="18" viewBox="0 0 18 18" fill="none" xmlns="http://www.w3.org/2000/svg">
<path d="M13.5 2C14.8807 2 16 3.11929 16 4.5V8H15V6H3V13.5C3 14.3284 3.67157 15 4.5 15H9V16H4.5C3.11929 16 2 14.8807 2 13.5V4.5C2 3.11929 3.11929 2 4.5 2H13.5ZM17 10C17.5523 10 18 10.4477 18 11C18 11.5523 17.5523 12 17 12C16.7965 12 16.6071 11.9393 16.4492 11.835L14.9561 12.5811C14.9849 12.7162 15 12.8563 15 13C15 13.1437 14.9849 13.2838 14.9561 13.4189L16.4492 14.165C16.6071 14.0607 16.7965 14 17 14C17.5523 14 18 14.4477 18 15C18 15.5523 17.5523 16 17 16C16.4678 16 16.0329 15.584 16.002 15.0596L14.5088 14.3135C14.1421 14.7343 13.602 15 13 15C11.8954 15 11 14.1046 11 13C11 11.8954 11.8954 11 13 11C13.602 11 14.1421 11.2657 14.5088 11.6865L16.002 10.9404C16.0329 10.416 16.4678 10 17 10ZM13 12C12.4477 12 12 12.4477 12 13C12 13.5523 12.4477 14 13 14C13.5523 14 14 13.5523 14 13C14 12.4477 13.5523 12 13 12ZM7.125 8.0791C8.20294 8.35675 9 9.33457 9 10.5C8.99999 11.8807 7.8807 13 6.5 13C5.1193 13 4.00001 11.8807 4 10.5H5C5.00001 11.3284 5.67158 12 6.5 12C7.32842 12 7.99999 11.3284 8 10.5C8 9.80175 7.52207 9.21342 6.875 9.04688L7.125 8.0791ZM4.5 3C3.67157 3 3 3.67157 3 4.5V5H15V4.5C15 3.67157 14.3284 3 13.5 3H4.5Z" fill="#24242B"/>
</svg>
