<svg width="18" height="18" viewBox="0 0 18 18" fill="none" xmlns="http://www.w3.org/2000/svg">
<path fill-rule="evenodd" clip-rule="evenodd" d="M5.5 6C6.6002 6 7.5344 5.28932 7.86859 4.30198L11.0044 4.70484C11.0429 5.18023 11.2145 5.61803 11.4818 5.98097L10.3005 7.26918C9.92933 7.05094 9.49686 6.92578 9.03516 6.92578C7.65444 6.92578 6.53516 8.04507 6.53516 9.42578C6.53516 10.149 6.84225 10.8005 7.33316 11.257C5.68103 11.7816 4.3671 13.0655 3.80125 14.6988C3.7383 14.8805 3.79769 15.0811 3.94671 15.2026C5.3243 16.3262 7.08324 17 8.99955 17C10.9159 17 12.6748 16.3262 14.0524 15.2026C14.2014 15.0811 14.2608 14.8805 14.1978 14.6988C13.638 13.0829 12.346 11.809 10.7186 11.274C11.2203 10.8168 11.5352 10.158 11.5352 9.42578C11.5352 8.86832 11.3527 8.35347 11.0442 7.93771L12.2231 6.6521C12.596 6.87312 13.0312 7 13.4961 7C14.8768 7 15.9961 5.88071 15.9961 4.5C15.9961 3.11929 14.8768 2 13.4961 2C12.3908 2 11.453 2.71732 11.1229 3.71184L7.99287 3.30973C7.89565 2.01791 6.8167 1 5.5 1C4.11929 1 3 2.11929 3 3.5C3 4.88071 4.11929 6 5.5 6ZM7 3.5C7 4.32843 6.32843 5 5.5 5C4.67157 5 4 4.32843 4 3.5C4 2.67157 4.67157 2 5.5 2C6.32843 2 7 2.67157 7 3.5ZM8.99955 16C7.46236 16 6.04292 15.5056 4.88855 14.6664C5.59095 13.094 7.16861 12 8.99955 12C10.8305 12 12.4081 13.094 13.1105 14.6664C11.9562 15.5056 10.5367 16 8.99955 16ZM9.03516 10.9258C9.86358 10.9258 10.5352 10.2542 10.5352 9.42578C10.5352 8.59735 9.86358 7.92578 9.03516 7.92578C8.20673 7.92578 7.53516 8.59735 7.53516 9.42578C7.53516 10.2542 8.20673 10.9258 9.03516 10.9258ZM14.9961 4.5C14.9961 5.32843 14.3245 6 13.4961 6C12.6677 6 11.9961 5.32843 11.9961 4.5C11.9961 3.67157 12.6677 3 13.4961 3C14.3245 3 14.9961 3.67157 14.9961 4.5Z" fill="#24242B"/>
</svg>
