<svg width="18" height="18" viewBox="0 0 18 18" fill="none" xmlns="http://www.w3.org/2000/svg">
<path fill-rule="evenodd" clip-rule="evenodd" d="M9 2C5.13401 2 2 5.13401 2 9C2 11.1537 2.97262 13.0802 4.50258 14.3643C4.57389 12.4942 6.11245 11 8 11H10C11.8875 11 13.4261 12.4942 13.4974 14.3643C15.0274 13.0802 16 11.1537 16 9C16 5.13401 12.866 2 9 2ZM12.5 15.0635V14.5C12.5 13.1193 11.3807 12 10 12H8C6.61929 12 5.5 13.1193 5.5 14.5V15.0635C6.52961 15.6591 7.725 16 9 16C10.275 16 11.4704 15.6591 12.5 15.0635ZM1 9C1 4.58172 4.58172 1 9 1C13.4183 1 17 4.58172 17 9C17 13.4183 13.4183 17 9 17C4.58172 17 1 13.4183 1 9ZM9 6C8.17157 6 7.5 6.67157 7.5 7.5C7.5 8.32843 8.17157 9 9 9C9.82843 9 10.5 8.32843 10.5 7.5C10.5 6.67157 9.82843 6 9 6ZM6.5 7.5C6.5 6.11929 7.61929 5 9 5C10.3807 5 11.5 6.11929 11.5 7.5C11.5 8.88071 10.3807 10 9 10C7.61929 10 6.5 8.88071 6.5 7.5Z" fill="#24242B"/>
</svg>
