<svg width="18" height="18" viewBox="0 0 18 18" fill="none" xmlns="http://www.w3.org/2000/svg">
<path d="M5 8H7V9H5V8Z" fill="#24242B"/>
<path d="M5 11H7V12H5V11Z" fill="#24242B"/>
<path d="M8 8H10V9H8V8Z" fill="#24242B"/>
<path d="M8 11H10V12H8V11Z" fill="#24242B"/>
<path d="M11 8H13V9H11V8Z" fill="#24242B"/>
<path fill-rule="evenodd" clip-rule="evenodd" d="M5 2V1H6V2H12V1H13V2H13.5C14.8807 2 16 3.11929 16 4.5V13.5C16 14.8807 14.8807 16 13.5 16H4.5C3.11929 16 2 14.8807 2 13.5V4.5C2 3.11929 3.11929 2 4.5 2H5ZM5 4V3H4.5C3.67157 3 3 3.67157 3 4.5V5H15V4.5C15 3.67157 14.3284 3 13.5 3H13V4H12V3H6V4H5ZM3 6V13.5C3 14.3284 3.67157 15 4.5 15H13.5C14.3284 15 15 14.3284 15 13.5V6H3Z" fill="#24242B"/>
</svg>
