<svg width="18" height="18" viewBox="0 0 18 18" fill="none" xmlns="http://www.w3.org/2000/svg">
<path fill-rule="evenodd" clip-rule="evenodd" d="M3 3.5C3 2.11929 4.11929 1 5.5 1H12.5C13.8807 1 15 2.11929 15 3.5V14.5C15 15.8807 13.8807 17 12.5 17H5.5C4.11929 17 3 15.8807 3 14.5V3.5ZM5.5 2C4.67157 2 4 2.67157 4 3.5V14.5C4 15.3284 4.67157 16 5.5 16H12.5C13.3284 16 14 15.3284 14 14.5V3.5C14 2.67157 13.3284 2 12.5 2H5.5ZM7 7.43236V3H6V9.04338L9 7.55794L12 9.04338V3H11V7.43236L9 6.44206L7 7.43236Z" fill="#24242B"/>
</svg>
