<svg width="18" height="18" viewBox="0 0 18 18" fill="none" xmlns="http://www.w3.org/2000/svg">
<path fill-rule="evenodd" clip-rule="evenodd" d="M3 3.5C3 2.11929 4.11929 1 5.5 1H10.6716C11.3346 1 11.9705 1.26339 12.4393 1.73223L14.2678 3.56066C14.7366 4.0295 15 4.66539 15 5.32843V7H14V6H11.5C10.6716 6 10 5.32843 10 4.5V2H5.5C4.67157 2 4 2.67157 4 3.5V14.5C4 15.3284 4.67157 16 5.5 16H8V17H5.5C4.11929 17 3 15.8807 3 14.5V3.5ZM11.8536 2.56066C11.615 2.32214 11.32 2.15306 11 2.06645V4.5C11 4.77614 11.2239 5 11.5 5H13.9335C13.8469 4.67996 13.6779 4.38497 13.4393 4.14645L11.8536 2.56066Z" fill="#24242B"/>
<path d="M12 9H6V8H12V9Z" fill="#24242B"/>
<path d="M9 11H6V10H9V11Z" fill="#24242B"/>
<path fill-rule="evenodd" clip-rule="evenodd" d="M16.5607 9.85353C15.9749 9.26774 15.0251 9.26774 14.4393 9.85352L10 14.2929V17H12.7071L17.1464 12.5606C17.7322 11.9748 17.7322 11.0251 17.1464 10.4393L16.5607 9.85353ZM15.1464 10.5606C15.3417 10.3654 15.6583 10.3654 15.8536 10.5606L16.4393 11.1464C16.6346 11.3417 16.6346 11.6583 16.4393 11.8535L12.2929 16H11V14.7071L15.1464 10.5606Z" fill="#24242B"/>
</svg>
