<svg width="18" height="18" viewBox="0 0 18 18" fill="none" xmlns="http://www.w3.org/2000/svg">
<path fill-rule="evenodd" clip-rule="evenodd" d="M9 2C5.13401 2 2 5.13401 2 9C2 12.866 5.13401 16 9 16C12.866 16 16 12.866 16 9C16 5.13401 12.866 2 9 2ZM1 9C1 4.58172 4.58172 1 9 1C13.4183 1 17 4.58172 17 9C17 13.4183 13.4183 17 9 17C4.58172 17 1 13.4183 1 9ZM9.5 4V10.5H8.5V4H9.5ZM8 13C8 12.4477 8.44772 12 9 12C9.55229 12 10 12.4477 10 13C10 13.5523 9.55229 14 9 14C8.44772 14 8 13.5523 8 13Z" fill="#24242B"/>
</svg>
