<svg width="18" height="18" viewBox="0 0 18 18" fill="none" xmlns="http://www.w3.org/2000/svg">
<path fill-rule="evenodd" clip-rule="evenodd" d="M8.62729 1.11742C9.25545 1.00875 9.60869 1.68038 9.3529 2.14846C8.80923 3.14334 8.5 4.28482 8.5 5.50002C8.5 9.36601 11.634 12.5 15.5 12.5C15.6458 12.5 15.7906 12.4956 15.934 12.4868C16.4659 12.4543 16.9246 13.059 16.5588 13.5818C15.1132 15.6475 12.7146 17 10 17C5.58172 17 2 13.4183 2 9.00002C2 5.04949 4.863 1.76865 8.62729 1.11742ZM8.19459 2.23493C5.20365 3.03093 3 5.75857 3 9.00002C3 12.866 6.13401 16 10 16C12.1526 16 14.0784 15.0288 15.3631 13.4989C11.008 13.4258 7.5 9.87258 7.5 5.50002C7.5 4.33775 7.74815 3.23239 8.19459 2.23493Z" fill="#24242B"/>
</svg>
