<svg width="18" height="18" viewBox="0 0 18 18" fill="none" xmlns="http://www.w3.org/2000/svg">
<path d="M13 9C15.2091 9 17 10.7909 17 13C17 15.2091 15.2091 17 13 17C10.7909 17 9 15.2091 9 13C9 10.7909 10.7909 9 13 9ZM6 2H12V1H13V2H13.5C14.8807 2 16 3.11929 16 4.5V7H15V6H3V13.5C3 14.3284 3.67157 15 4.5 15H7V16H4.5C3.11929 16 2 14.8807 2 13.5V4.5C2 3.11929 3.11929 2 4.5 2H5V1H6V2ZM13 10C11.3431 10 10 11.3431 10 13C10 14.6569 11.3431 16 13 16C14.6569 16 16 14.6569 16 13C16 11.3431 14.6569 10 13 10ZM13.5 12.793L14.3535 13.6465L13.6465 14.3535L12.5 13.207V11H13.5V12.793ZM4.5 3C3.67157 3 3 3.67157 3 4.5V5H15V4.5C15 3.67157 14.3284 3 13.5 3H13V4H12V3H6V4H5V3H4.5Z" fill="#24242B"/>
</svg>
