<svg width="24" height="24" viewBox="0 0 24 24" fill="none" xmlns="http://www.w3.org/2000/svg">
<path fill-rule="evenodd" clip-rule="evenodd" d="M12.8 6.86928C13.7883 6.53568 14.5 5.60095 14.5 4.5C14.5 3.11929 13.3807 2 12 2C10.6193 2 9.5 3.11929 9.5 4.5C9.5 5.60091 10.2116 6.53562 11.2 6.86924V9H6C3.79086 9 2 10.7909 2 13V16C2 18.2091 3.79086 20 6 20H18C20.2091 20 22 18.2091 22 16V13C22 10.7909 20.2091 9 18 9H12.8V6.86928ZM7.5 16C8.32843 16 9 15.3284 9 14.5C9 13.6716 8.32843 13 7.5 13C6.67157 13 6 13.6716 6 14.5C6 15.3284 6.67157 16 7.5 16ZM18 14.5C18 15.3284 17.3284 16 16.5 16C15.6716 16 15 15.3284 15 14.5C15 13.6716 15.6716 13 16.5 13C17.3284 13 18 13.6716 18 14.5Z" fill="#9D9DA0"/>
</svg>
