<svg width="24" height="24" viewBox="0 0 24 24" fill="none" xmlns="http://www.w3.org/2000/svg">
<path fill-rule="evenodd" clip-rule="evenodd" d="M3 4.99954C3 3.89497 3.89543 2.99954 5 2.99954H19C20.1046 2.99954 21 3.89497 21 4.99954V18.9995C21 20.1041 20.1046 20.9995 19 20.9995H5C3.89543 20.9995 3 20.1041 3 18.9995V4.99954ZM4.9999 14.3964C5.73411 14.0128 6.27781 14.137 6.82151 14.2612C7.36522 14.3854 7.90892 14.5096 8.64313 14.126C9.38012 13.7423 9.57201 13.2345 9.76391 12.7267C9.9558 12.2189 10.1477 11.711 10.8847 11.3274C11.6189 10.9438 12.1626 11.068 12.7063 11.1922C13.25 11.3164 13.7937 11.4405 14.5279 11.0569C15.2613 10.6737 15.4536 10.1667 15.6459 9.65943C15.8387 9.151 16.0316 8.64243 16.7695 8.25835C17.5048 7.8736 18.0508 7.99907 18.5936 8.12378C18.7283 8.15472 18.8628 8.18563 18.9999 8.20867V18.0616C18.9999 18.575 18.5772 19 18.0543 19H5.94547C5.42263 19 4.9999 18.575 4.9999 18.0616V14.3964ZM6.9999 8.99951C8.10447 8.99951 8.9999 8.10408 8.9999 6.99951C8.9999 5.89494 8.10447 4.99951 6.9999 4.99951C5.89533 4.99951 4.9999 5.89494 4.9999 6.99951C4.9999 8.10408 5.89533 8.99951 6.9999 8.99951Z" fill="#9D9DA0"/>
</svg>
