<svg width="24" height="24" viewBox="0 0 24 24" fill="none" xmlns="http://www.w3.org/2000/svg">
<path d="M13 13C13 11.8954 13.8954 11 15 11H19C20.1046 11 21 11.8954 21 13V19C21 20.1046 20.1046 21 19 21H15C13.8954 21 13 20.1046 13 19V13Z" fill="#9D9DA0"/>
<path d="M3 5C3 3.89543 3.89543 3 5 3H9C10.1046 3 11 3.89543 11 5V11C11 12.1046 10.1046 13 9 13H5C3.89543 13 3 12.1046 3 11V5Z" fill="#9D9DA0"/>
<path d="M3 17C3 15.8954 3.89543 15 5 15H9C10.1046 15 11 15.8954 11 17V19C11 20.1046 10.1046 21 9 21H5C3.89543 21 3 20.1046 3 19V17Z" fill="#9D9DA0"/>
<path d="M20 6C20 7.65685 18.6568 9 17 9C15.3431 9 14 7.65685 14 6C14 4.34315 15.3431 3 17 3C18.6568 3 20 4.34315 20 6Z" fill="#9D9DA0"/>
</svg>
