<svg width="24" height="24" viewBox="0 0 24 24" fill="none" xmlns="http://www.w3.org/2000/svg">
<path d="M8.80681 14.8523C9.14962 15.0038 9.54261 15.0796 9.98579 15.0796C10.4403 15.0796 10.8428 15.0057 11.1932 14.858C11.5455 14.7084 11.8201 14.5038 12.017 14.2443C12.2159 13.983 12.3153 13.6837 12.3153 13.3466C12.3172 12.9887 12.2026 12.6904 11.9716 12.4517C11.7424 12.2131 11.4025 12.0673 10.9517 12.0142V11.9688C11.2888 11.9195 11.5644 11.7888 11.7784 11.5767C11.9943 11.3646 12.1013 11.0947 12.0994 10.7671C12.0994 10.4508 12.0114 10.1676 11.8352 9.91764C11.6591 9.66574 11.4129 9.46688 11.0966 9.32104C10.7803 9.17521 10.4138 9.10229 9.99716 9.10229C9.5786 9.10229 9.20549 9.17711 8.87784 9.32673C8.55208 9.47635 8.2945 9.68373 8.10511 9.94889C7.91572 10.2121 7.81913 10.5171 7.81534 10.8637H9.15909C9.16288 10.7311 9.2017 10.6146 9.27556 10.5142C9.34943 10.4138 9.44886 10.3362 9.57386 10.2813C9.70075 10.2263 9.84185 10.1989 9.99716 10.1989C10.1449 10.1989 10.2746 10.2263 10.3864 10.2813C10.5 10.3362 10.5881 10.4138 10.6506 10.5142C10.715 10.6127 10.7462 10.7273 10.7443 10.858C10.7462 10.9924 10.7102 11.1118 10.6364 11.2159C10.5625 11.3182 10.4593 11.3977 10.3267 11.4546C10.196 11.5114 10.0445 11.5398 9.87216 11.5398H9.30681V12.5398H9.87216C10.0691 12.5398 10.2396 12.5692 10.3835 12.6279C10.5294 12.6866 10.642 12.769 10.7216 12.875C10.8011 12.9811 10.84 13.1023 10.8381 13.2387C10.84 13.375 10.8049 13.4962 10.733 13.6023C10.661 13.7065 10.5606 13.7888 10.4318 13.8495C10.3049 13.9082 10.1581 13.9375 9.99147 13.9375C9.82481 13.9375 9.67613 13.9101 9.54545 13.8551C9.41477 13.8002 9.31155 13.7245 9.23579 13.6279C9.16003 13.5294 9.11932 13.4167 9.11363 13.2898H7.69886C7.70265 13.6402 7.80303 13.9498 8 14.2188C8.19697 14.4877 8.46591 14.6989 8.80681 14.8523Z" fill="#9D9DA0"/>
<path d="M15.799 15V9.18184H14.495L13.0604 10.0739V11.2898L14.3615 10.4943H14.3956V15H15.799Z" fill="#9D9DA0"/>
<path fill-rule="evenodd" clip-rule="evenodd" d="M6 2.49854C6 1.67011 6.67157 0.998535 7.5 0.998535C8.32843 0.998535 9 1.67011 9 2.49854V2.99854H15V2.49854C15 1.67011 15.6716 0.998535 16.5 0.998535C17.3284 0.998535 18 1.67011 18 2.49854V2.99854H19C20.1046 2.99854 21 3.89397 21 4.99854V18.9985C21 20.1031 20.1046 20.9985 19 20.9985H5C3.89543 20.9985 3 20.1031 3 18.9985V4.99854C3 3.89397 3.89543 2.99854 5 2.99854H6V2.49854ZM19 12C19 15.866 15.866 19 12 19C8.13401 19 5 15.866 5 12C5 8.13401 8.13401 5 12 5C15.866 5 19 8.13401 19 12Z" fill="#9D9DA0"/>
</svg>
