<svg width="24" height="24" viewBox="0 0 24 24" fill="none" xmlns="http://www.w3.org/2000/svg">
<path d="M11.9911 2C12.1151 2 12.2037 2.07407 12.2568 2.16667L13.6561 5.11111L16.7558 5.57407C16.8621 5.59259 16.9507 5.66667 16.9861 5.77778C17.0215 5.88889 16.9861 6.01852 16.9153 6.09259L14.6657 8.38889L15.1971 11.5926C15.2148 11.6296 15.2148 11.6481 15.2148 11.6852C15.2148 11.8519 15.0909 11.9815 14.9314 11.9815C14.8783 11.9815 14.8252 11.963 14.7897 11.9444L12.0266 10.4259L9.24569 11.963C9.2346 11.9668 9.22428 11.9707 9.21441 11.9744C9.17699 11.9884 9.14603 12 9.10399 12C9.03314 12 8.98 11.9815 8.92686 11.9444C8.82058 11.8704 8.78516 11.7593 8.80287 11.6481L9.33425 8.40741L7.08475 6.11111C7.0139 6.01852 6.97847 5.90741 7.0139 5.7963C7.04932 5.68518 7.13789 5.61111 7.24416 5.59259L10.3439 5.11111L11.7255 2.16667C11.7786 2.07407 11.8849 2 11.9911 2Z" fill="#9D9DA0"/>
<path d="M5.25683 12.1667C5.2037 12.0741 5.11513 12 4.99114 12C4.88487 12 4.77859 12.0741 4.72545 12.1667L3.34387 15.1111L0.244162 15.5926C0.137886 15.6111 0.0493227 15.6852 0.0138975 15.7963C-0.0215277 15.9074 0.0138975 16.0185 0.084748 16.1111L2.33425 18.4074L1.80287 21.6481C1.78516 21.7593 1.82058 21.8704 1.92686 21.9444C1.98 21.9815 2.03314 22 2.10399 22C2.14603 22 2.17699 21.9884 2.21441 21.9744C2.22428 21.9707 2.2346 21.9668 2.24569 21.963L5.02657 20.4259L7.78974 21.9444C7.82516 21.963 7.8783 21.9815 7.93144 21.9815C8.09085 21.9815 8.21484 21.8519 8.21484 21.6852C8.21484 21.6481 8.21484 21.6296 8.19713 21.5926L7.66575 18.3889L9.91525 16.0926C9.9861 16.0185 10.0215 15.8889 9.9861 15.7778C9.95068 15.6667 9.86211 15.5926 9.75584 15.5741L6.65613 15.1111L5.25683 12.1667Z" fill="#9D9DA0"/>
<path d="M19.2568 12.1667C19.2037 12.0741 19.1151 12 18.9911 12C18.8849 12 18.7786 12.0741 18.7255 12.1667L17.3439 15.1111L14.2442 15.5926C14.1379 15.6111 14.0493 15.6852 14.0139 15.7963C13.9785 15.9074 14.0139 16.0185 14.0847 16.1111L16.3343 18.4074L15.8029 21.6481C15.7852 21.7593 15.8206 21.8704 15.9269 21.9444C15.98 21.9815 16.0331 22 16.104 22C16.146 22 16.177 21.9884 16.2144 21.9744C16.2243 21.9707 16.2346 21.9668 16.2457 21.963L19.0266 20.4259L21.7897 21.9444C21.8252 21.963 21.8783 21.9815 21.9314 21.9815C22.0909 21.9815 22.2148 21.8519 22.2148 21.6852C22.2148 21.6481 22.2148 21.6296 22.1971 21.5926L21.6657 18.3889L23.9153 16.0926C23.9861 16.0185 24.0215 15.8889 23.9861 15.7778C23.9507 15.6667 23.8621 15.5926 23.7558 15.5741L20.6561 15.1111L19.2568 12.1667Z" fill="#9D9DA0"/>
</svg>
