<svg width="24" height="24" viewBox="0 0 24 24" fill="none" xmlns="http://www.w3.org/2000/svg">
<path d="M9.50092 12.0005C9.50092 10.6198 10.6205 9.5 12.0009 9.5C13.3813 9.5 14.5009 10.6189 14.5009 12.0005C14.5009 13.3811 13.3813 14.5 12.0009 14.5C10.6205 14.5 9.50092 13.3811 9.50092 12.0005Z" fill="#9D9DA0"/>
<path fill-rule="evenodd" clip-rule="evenodd" d="M20.7875 13.5601L21.7288 14.3719C22.0086 14.6132 22.0844 15.0676 21.8973 15.3832L19.9697 18.6186C19.7835 18.9324 19.34 19.0957 18.9845 18.9823L17.7887 18.5986C17.4331 18.4844 16.8895 18.5569 16.5788 18.7592L15.7488 19.2236C15.4129 19.3832 15.0761 19.8032 15.0003 20.1587L14.7449 21.3542C14.6691 21.7098 14.3013 22 13.9271 22H10.0729C9.69867 22 9.33094 21.7088 9.25515 21.3542L8.99971 20.156C8.92392 19.8005 8.58707 19.3796 8.25022 19.2209L7.41839 18.7592C7.10774 18.556 6.56317 18.4834 6.20854 18.5977L5.01553 18.9805C4.66091 19.0939 4.21739 18.9306 4.03025 18.6168L2.10273 15.3814C1.91559 15.0676 1.99138 14.6132 2.27115 14.3719L3.20965 13.561C3.48848 13.3197 3.69621 12.8263 3.67001 12.4644L3.67282 11.5347C3.69902 11.1728 3.49223 10.6794 3.21246 10.4381L2.27115 9.6263C1.99231 9.38503 1.91652 8.93061 2.10366 8.61678L4.03025 5.38141C4.21739 5.06757 4.66091 4.9034 5.01647 5.01769L6.21228 5.40136C6.56784 5.51565 7.11148 5.44399 7.42213 5.24082L8.25209 4.77642C8.588 4.61678 8.92485 4.19683 9.00064 3.84127L9.25609 2.64581C9.33188 2.29116 9.6996 2 10.0739 2H13.928C14.3023 2 14.67 2.29116 14.7449 2.64581L14.9994 3.84581C15.0751 4.20045 15.412 4.62132 15.7479 4.78005L16.5797 5.24172C16.8904 5.4449 17.435 5.51746 17.7896 5.40317L18.9835 5.0195C19.3391 4.90522 19.7826 5.06939 19.9697 5.38322L21.8973 8.61859C22.0844 8.93243 22.0086 9.38685 21.7288 9.62812L20.7894 10.4381C20.5096 10.6794 20.3029 11.1719 20.3291 11.5338L20.3272 12.4644C20.3001 12.8254 20.5078 13.3188 20.7875 13.5601ZM6.21322 11.9991C6.21322 15.0975 8.80415 17.61 12.0005 17.61C15.1968 17.61 17.7877 15.0984 17.7877 11.9991C17.7877 8.89977 15.1968 6.38821 12.0005 6.38821C8.80415 6.38821 6.21322 8.90068 6.21322 11.9991Z" fill="#9D9DA0"/>
</svg>
