<svg width="24" height="24" viewBox="0 0 24 24" fill="none" xmlns="http://www.w3.org/2000/svg">
<path d="M20.6306 3.77615C21.0592 3.42788 21.1244 2.79808 20.7761 2.36944C20.4279 1.94081 19.798 1.87565 19.3694 2.22392L11.924 8.27324L9.20459 6.57359C8.41484 6.08 7.38892 6.19684 6.73038 6.85538L3.29289 10.2929C2.90237 10.6834 2.90237 11.3166 3.29289 11.7071C3.68342 12.0976 4.31658 12.0976 4.70711 11.7071L8.14459 8.26959L10.864 9.96923C11.589 10.4223 12.5217 10.3645 13.1852 9.82547L20.6306 3.77615Z" fill="#9D9DA0"/>
<path d="M17 10.5C17 9.67157 17.6716 9 18.5 9H19.5C20.3284 9 21 9.67157 21 10.5V19.5C21 20.3284 20.3284 21 19.5 21H18.5C17.6716 21 17 20.3284 17 19.5V10.5Z" fill="#9D9DA0"/>
<path d="M11.5 13C10.6716 13 10 13.6716 10 14.5V19.5C10 20.3284 10.6716 21 11.5 21H12.5C13.3284 21 14 20.3284 14 19.5V14.5C14 13.6716 13.3284 13 12.5 13H11.5Z" fill="#9D9DA0"/>
<path d="M4.5 14.9999C3.67157 14.9999 3 15.6715 3 16.4999V19.4999C3 20.3284 3.67157 20.9999 4.5 20.9999H5.5C6.32843 20.9999 7 20.3284 7 19.4999V16.4999C7 15.6715 6.32843 14.9999 5.5 14.9999H4.5Z" fill="#9D9DA0"/>
</svg>
