<svg width="24" height="24" viewBox="0 0 24 24" fill="none" xmlns="http://www.w3.org/2000/svg">
<path d="M9.79906 0.88406C10.9948 0.193704 12.5238 0.603392 13.2141 1.79912C13.4373 2.1857 13.5455 2.60711 13.5494 3.02375L17.3208 4.0343C17.8754 2.83337 19.0904 2.00001 20.5 2.00001C22.433 2.00001 24 3.56702 24 5.50001C24 7.43301 22.433 9.00002 20.5 9.00002C19.5208 9.00002 18.6354 8.59785 18.0002 7.94968L15.2955 10.6544C15.5336 11.0969 15.6687 11.603 15.6687 12.1407C15.6687 13.1431 15.1992 14.0357 14.4681 14.6108C16.6136 15.2456 18.3187 16.9058 19.0159 19.0238C19.1015 19.284 19.0424 19.5694 18.8637 19.7771C17.3315 21.558 15.0613 22.6857 12.5277 22.6857C9.99359 22.6857 7.72296 21.5575 6.19072 19.776C6.01208 19.5683 5.95303 19.2829 6.03873 19.0226C6.73624 16.9048 8.44173 15.2448 10.5875 14.6104C9.8566 14.0353 9.38727 13.1428 9.38727 12.1407C9.38727 10.4062 10.7934 9 12.528 9C13.3614 9 14.1191 9.32463 14.6813 9.85435L17.4032 7.13243C17.1458 6.64505 17 6.08955 17 5.50001C17 5.32795 17.0124 5.15879 17.0364 4.99338L13.3581 4.00777C13.1549 4.49829 12.7944 4.9282 12.2991 5.21419C11.1033 5.90454 9.57436 5.49486 8.884 4.29912C8.19364 3.10339 8.60333 1.57442 9.79906 0.88406Z" fill="#9D9DA0"/>
</svg>
