<svg viewBox="0 0 24 25" width="18" height="18" xmlns="http://www.w3.org/2000/svg">
<path d="M13.248 6.433a2.137 2.137 0 1 0-2.64 0 4.658 4.658 0 0 0-3.05 2.871.74.74 0 0 0 .15.748 5.67 5.67 0 0 0 4.22 1.876 5.67 5.67 0 0 0 4.22-1.876.74.74 0 0 0 .15-.747 4.658 4.658 0 0 0-3.05-2.872ZM18.714 16.098a2.137 2.137 0 1 0-2.64 0 4.658 4.658 0 0 0-3.05 2.87.74.74 0 0 0 .15.749 5.67 5.67 0 0 0 4.22 1.875 5.67 5.67 0 0 0 4.22-1.875.74.74 0 0 0 .15-.748 4.658 4.658 0 0 0-3.05-2.871ZM8.6 14.418c0 .682-.32 1.289-.817 1.68a4.658 4.658 0 0 1 3.048 2.871.74.74 0 0 1-.15.748 5.67 5.67 0 0 1-4.219 1.875 5.67 5.67 0 0 1-4.22-1.875.74.74 0 0 1-.149-.748 4.658 4.658 0 0 1 3.049-2.871 2.137 2.137 0 1 1 3.457-1.68Z" fill="currentColor"/>
</svg>

