<svg width="18" height="18" viewBox="0 0 18 18" fill="none" xmlns="http://www.w3.org/2000/svg">
<path d="M11.3008 1C12.1178 1 12.8407 1.39389 13.2969 2H6.30078C5.47235 2 4.80078 2.67157 4.80078 3.5V4H8.80078V5H4.80078V14.5C4.80078 15.3284 5.47235 16 6.30078 16H11.3008C12.1292 16 12.8008 15.3284 12.8008 14.5V13H13.8008V14.5C13.8008 15.8807 12.6815 17 11.3008 17H6.30078C4.92007 17 3.80078 15.8807 3.80078 14.5V3.5C3.80078 2.11929 4.92007 1 6.30078 1H11.3008ZM9.80078 15H7.80078V14H9.80078V15ZM16.8008 9H15.8008V5.70703L11.5117 9.99609L10.8047 9.28906L15.0938 5H11.8008V4H16.8008V9Z" fill="#24242B"/>
</svg>
