<svg viewBox="0 0 24 25" width="18" height="18" xmlns="http://www.w3.org/2000/svg">
<path fill-rule="evenodd" clip-rule="evenodd" d="M7 2.437a2 2 0 0 0-2 2v16a2 2 0 0 0 2 2h10a2 2 0 0 0 2-2v-16a2 2 0 0 0-2-2H7Zm10 2H7v15h10v-15Zm-7 16.5a.5.5 0 0 1 .5-.5h3a.5.5 0 0 1 0 1h-3a.5.5 0 0 1-.5-.5Z" fill="currentColor"/>
<path d="M9.75 10.687a2.25 2.25 0 1 1 4.5 0 2.25 2.25 0 0 1-4.5 0ZM8.5 16.604c0-1.688 1.368-3.167 3.056-3.167h.889c1.687 0 3.055 1.48 3.055 3.167v.833h-7v-.833Z" fill="currentColor"/>
</svg>

