<svg width="18" height="18" viewBox="0 0 18 18" fill="none" xmlns="http://www.w3.org/2000/svg">
<path fill-rule="evenodd" clip-rule="evenodd" d="M2 4C2 2.89543 2.89543 2 4 2H6C7.10457 2 8 2.89543 8 4V6C8 7.10457 7.10457 8 6 8H4C2.89543 8 2 7.10457 2 6V4ZM4 3C3.44772 3 3 3.44772 3 4V6C3 6.55228 3.44772 7 4 7H6C6.55228 7 7 6.55228 7 6V4C7 3.44772 6.55228 3 6 3H4ZM10 4C10 2.89543 10.8954 2 12 2H14C15.1046 2 16 2.89543 16 4V6C16 7.10457 15.1046 8 14 8H12C10.8954 8 10 7.10457 10 6V4ZM12 3C11.4477 3 11 3.44772 11 4V6C11 6.55228 11.4477 7 12 7H14C14.5523 7 15 6.55228 15 6V4C15 3.44772 14.5523 3 14 3H12ZM2 12C2 10.8954 2.89543 10 4 10H6C7.10457 10 8 10.8954 8 12V14C8 15.1046 7.10457 16 6 16H4C2.89543 16 2 15.1046 2 14V12ZM4 11C3.44772 11 3 11.4477 3 12V14C3 14.5523 3.44772 15 4 15H6C6.55228 15 7 14.5523 7 14V12C7 11.4477 6.55228 11 6 11H4ZM10 12C10 10.8954 10.8954 10 12 10H14C15.1046 10 16 10.8954 16 12V14C16 15.1046 15.1046 16 14 16H12C10.8954 16 10 15.1046 10 14V12ZM12 11C11.4477 11 11 11.4477 11 12V14C11 14.5523 11.4477 15 12 15H14C14.5523 15 15 14.5523 15 14V12C15 11.4477 14.5523 11 14 11H12Z" fill="#24242B"/>
</svg>
