<svg width="18" height="18" viewBox="0 0 18 18" fill="none" xmlns="http://www.w3.org/2000/svg">
<path fill-rule="evenodd" clip-rule="evenodd" d="M8.99888 2.00879L10.2222 4.10302L12.5183 4.62111L10.9816 6.41941L11.316 8.99873L8.99888 8.02232L6.68174 8.99873L7.01621 6.41919L5.48195 4.62111L7.77548 4.10307L8.99888 2.00879ZM8.99888 3.99133L8.41973 4.98275L7.31752 5.2317L8.06497 6.10768L7.89723 7.40138L8.99888 6.93716L10.1005 7.40138L9.93276 6.10746L10.6811 5.2317L9.57806 4.9828L8.99888 3.99133Z" fill="#24242B"/>
<path fill-rule="evenodd" clip-rule="evenodd" d="M13.4789 9.00879L14.7022 11.103L16.9983 11.6211L15.4616 13.4194L15.796 15.9987L13.4789 15.0223L11.1617 15.9987L11.4962 13.4192L9.96195 11.6211L12.2555 11.1031L13.4789 9.00879ZM13.4789 10.9913L12.8997 11.9827L11.7975 12.2317L12.545 13.1077L12.3772 14.4014L13.4789 13.9372L14.5805 14.4014L14.4128 13.1075L15.1611 12.2317L14.0581 11.9828L13.4789 10.9913Z" fill="#24242B"/>
<path fill-rule="evenodd" clip-rule="evenodd" d="M4.51888 9.00879L5.74225 11.103L8.03833 11.6211L6.50158 13.4194L6.83605 15.9987L4.51888 15.0223L2.20174 15.9987L2.53621 13.4192L1.00195 11.6211L3.29548 11.1031L4.51888 9.00879ZM4.51888 10.9913L3.93973 11.9827L2.83752 12.2317L3.58497 13.1077L3.41723 14.4014L4.51888 13.9372L5.62054 14.4014L5.45276 13.1075L6.20114 12.2317L5.09806 11.9828L4.51888 10.9913Z" fill="#24242B"/>
</svg>
