<svg width="36" height="36" viewBox="0 0 36 36" fill="none" xmlns="http://www.w3.org/2000/svg">
<rect width="36" height="36.0006" rx="6" fill="white" fill-opacity="0.01"/>
<path d="M11.1962 12.3597C8.08094 12.3597 5.55566 14.8843 5.55566 17.9989C5.55566 21.1134 8.08094 23.638 11.1962 23.638H12.3582V12.3597H11.1962Z" fill="#42C9F2"/>
<path d="M24.804 12.3597H23.6407V23.638H24.804C27.9193 23.638 30.4446 21.1134 30.4446 17.9989C30.4446 14.8843 27.9193 12.3597 24.804 12.3597Z" fill="#6666FF"/>
<path d="M23.6407 11.1947C23.6407 8.08015 21.1154 5.55554 18.0001 5.55554C14.8848 5.55554 12.3595 8.08015 12.3595 11.1947V12.3597H23.6407V11.1947Z" fill="#42C9F2"/>
<path d="M12.5335 26.1552C13.2773 29.1765 16.3297 31.0233 19.3521 30.28C21.874 29.6596 23.6454 27.3966 23.6407 24.8003V23.6373H15.0527L12.5328 26.1559L12.5335 26.1552Z" fill="#6666FF"/>
<path d="M12.3602 12.3597V24.8003C12.3622 25.2578 12.4197 25.7133 12.5328 26.1565L15.0527 23.6373H23.6407V12.3597H12.3602Z" fill="#000066"/>
</svg>
