<svg width="116" height="36" viewBox="0 0 116 36" fill="none" xmlns="http://www.w3.org/2000/svg">
<path d="M78.2334 12.603C81.1931 12.603 83.4804 14.9163 83.4805 18.522C83.4805 22.0471 81.2204 24.4417 78.3145 24.4419C75.5157 24.4419 74.7354 22.854 74.7354 22.854H74.6279V28.3735H71.9902V12.8726H73.7383L74.1162 14.4868H74.2773C74.2934 14.4575 75.3217 12.6031 78.2334 12.603ZM43.4902 12.6069C46.7739 12.6069 48.6297 14.9474 48.6299 18.231C48.6299 18.4724 48.6025 18.9312 48.6025 18.9312H40.584C40.745 21.218 42.0913 22.3491 44.083 22.3491C45.994 22.349 47.123 21.354 47.123 21.354L48.0645 23.1538C48.0645 23.1538 46.7721 24.4994 43.9199 24.4995C40.2336 24.4995 38 21.996 38 18.5532C38.0001 15.1353 40.1796 12.6069 43.4902 12.6069ZM100.416 7.70752C101.989 7.70761 102.955 8.23609 102.973 8.24561L102.139 10.2378C102.127 10.2322 101.538 9.94189 100.686 9.94189C99.6373 9.94209 98.9649 10.6421 98.9648 11.7729V12.8774H102.112V14.9497H98.9609V24.1802H96.3223V12.8735H96.3252V11.9048C96.3254 9.29407 97.8052 7.70752 100.416 7.70752ZM88.291 24.1753H85.6533V7.89502H88.291V24.1753ZM93.7012 24.1753H91.0635V12.8735H93.7012V24.1753ZM106.795 24.1753H104.157V12.8735H106.795V24.1753ZM64.6611 12.603C67.5937 12.6032 69.2899 14.648 69.29 17.688V24.1733H66.6523V17.9302C66.6523 16.2088 65.7649 14.8628 64.0146 14.8628C62.2396 14.8628 61.4037 16.182 61.3232 17.4204V24.1733H58.6914V17.6616C58.6914 16.0745 57.7506 14.863 56.0273 14.8628C54.2234 14.8628 53.4164 16.2357 53.3359 17.4204V24.1733H50.6973V12.8726H52.4189L52.7412 14.4868H52.9023C53.7361 13.2487 54.7865 12.6031 56.6416 12.603C58.4992 12.603 59.8721 13.3559 60.6523 14.6479H60.7861C61.5395 13.4095 62.6446 12.603 64.6611 12.603ZM77.6699 14.7847C75.895 14.7848 74.4962 16.2104 74.4961 18.5239C74.494 20.8644 75.8929 22.2641 77.6699 22.2642C79.5007 22.2642 80.8174 20.7303 80.8174 18.5239C80.8173 16.3445 79.4986 14.7847 77.6699 14.7847ZM43.4346 14.6479C41.9836 14.65 40.9866 15.4847 40.6914 17.1792H45.9922C45.8044 15.5383 44.9165 14.648 43.4346 14.6479ZM92.3828 7.62646C93.2968 7.6267 94.0233 8.32615 94.0234 9.21338C94.0234 10.1276 93.297 10.801 92.3828 10.8013C91.4953 10.8013 90.7686 10.1277 90.7686 9.21338C90.7687 8.326 91.4954 7.62646 92.3828 7.62646ZM105.475 7.62646C106.389 7.6267 107.115 8.32615 107.115 9.21338C107.115 10.1276 106.389 10.801 105.475 10.8013C104.587 10.8013 103.86 10.1277 103.86 9.21338C103.861 8.326 104.587 7.62646 105.475 7.62646Z" fill="#F9F9FA"/>
<rect y="0.000366211" width="36.0012" height="36.0006" rx="6" fill="white" fill-opacity="0.01"/>
<path d="M11.1962 12.3601C8.08094 12.3601 5.55566 14.8847 5.55566 17.9992C5.55566 21.1138 8.08094 23.6384 11.1962 23.6384H12.3582V12.3601H11.1962Z" fill="#42C9F2"/>
<path d="M24.804 12.3601H23.6407V23.6384H24.804C27.9193 23.6384 30.4446 21.1138 30.4446 17.9992C30.4446 14.8847 27.9193 12.3601 24.804 12.3601Z" fill="#6666FF"/>
<path d="M23.6407 11.1951C23.6407 8.08052 21.1154 5.55591 18.0001 5.55591C14.8848 5.55591 12.3595 8.08052 12.3595 11.1951V12.3601H23.6407V11.1951Z" fill="#42C9F2"/>
<path d="M12.5335 26.1556C13.2773 29.1769 16.3297 31.0237 19.3521 30.2804C21.874 29.66 23.6454 27.3969 23.6407 24.8007V23.6377H15.0527L12.5328 26.1562L12.5335 26.1556Z" fill="#6666FF"/>
<path d="M12.3602 12.3601V24.8007C12.3622 25.2582 12.4197 25.7136 12.5328 26.1569L15.0527 23.6377H23.6407V12.3601H12.3602Z" fill="#000066"/>
</svg>
