<svg width="24" height="24" viewBox="0 0 24 24" fill="none" xmlns="http://www.w3.org/2000/svg">
<path fill-rule="evenodd" clip-rule="evenodd" d="M5 2.99951C3.89543 2.99951 3 3.89494 3 4.99951V18.9995C3 20.1041 3.89543 20.9995 5 20.9995H19C20.1046 20.9995 21 20.1041 21 18.9995V4.99951C21 3.89494 20.1046 2.99951 19 2.99951H5ZM6.82149 14.2612C6.27779 14.137 5.73409 14.0128 4.99988 14.3964V18.0616C4.99988 18.575 5.4226 19 5.94545 19H18.0543C18.5772 19 18.9999 18.575 18.9999 18.0616V8.20867C18.8628 8.18563 18.7283 8.15473 18.5936 8.12378C18.0508 7.99907 17.5047 7.8736 16.7694 8.25835C16.0316 8.64243 15.8387 9.151 15.6459 9.65943C15.4535 10.1667 15.2612 10.6737 14.5279 11.0569C13.7937 11.4405 13.25 11.3164 12.7063 11.1922C12.1626 11.068 11.6189 10.9438 10.8847 11.3274C10.1477 11.711 9.95578 12.2189 9.76388 12.7267C9.57199 13.2345 9.38009 13.7423 8.6431 14.126C7.9089 14.5096 7.36519 14.3854 6.82149 14.2612Z" fill="url(#paint0_linear_36_6761)"/>
<circle cx="7" cy="6.99951" r="2" fill="#F9F9FA"/>
<defs>
<linearGradient id="paint0_linear_36_6761" x1="1.59361" y1="5.43644" x2="26.9956" y2="23.1463" gradientUnits="userSpaceOnUse">
<stop stop-color="#71A9FF"/>
<stop offset="1" stop-color="#415FFF"/>
</linearGradient>
</defs>
</svg>
