<svg width="24" height="24" viewBox="0 0 24 24" fill="none" xmlns="http://www.w3.org/2000/svg">
<path d="M13 13C13 11.8954 13.8954 11 15 11H19C20.1046 11 21 11.8954 21 13V19C21 20.1046 20.1046 21 19 21H15C13.8954 21 13 20.1046 13 19V13Z" fill="url(#paint0_linear_36_6779)"/>
<path d="M3 5C3 3.89543 3.89543 3 5 3H9C10.1046 3 11 3.89543 11 5V11C11 12.1046 10.1046 13 9 13H5C3.89543 13 3 12.1046 3 11V5Z" fill="url(#paint1_linear_36_6779)"/>
<path d="M3 17C3 15.8954 3.89543 15 5 15H9C10.1046 15 11 15.8954 11 17V19C11 20.1046 10.1046 21 9 21H5C3.89543 21 3 20.1046 3 19V17Z" fill="url(#paint2_linear_36_6779)"/>
<path d="M20 6C20 7.65685 18.6569 9 17 9C15.3431 9 14 7.65685 14 6C14 4.34315 15.3431 3 17 3C18.6569 3 20 4.34315 20 6Z" fill="url(#paint3_linear_36_6779)"/>
<circle cx="17" cy="6" r="3" fill="#F9F9FA"/>
<defs>
<linearGradient id="paint0_linear_36_6779" x1="1.59361" y1="5.43692" x2="26.9956" y2="23.1468" gradientUnits="userSpaceOnUse">
<stop stop-color="#71A9FF"/>
<stop offset="1" stop-color="#415FFF"/>
</linearGradient>
<linearGradient id="paint1_linear_36_6779" x1="1.59361" y1="5.43692" x2="26.9956" y2="23.1468" gradientUnits="userSpaceOnUse">
<stop stop-color="#71A9FF"/>
<stop offset="1" stop-color="#415FFF"/>
</linearGradient>
<linearGradient id="paint2_linear_36_6779" x1="1.59361" y1="5.43692" x2="26.9956" y2="23.1468" gradientUnits="userSpaceOnUse">
<stop stop-color="#71A9FF"/>
<stop offset="1" stop-color="#415FFF"/>
</linearGradient>
<linearGradient id="paint3_linear_36_6779" x1="1.59361" y1="5.43692" x2="26.9956" y2="23.1468" gradientUnits="userSpaceOnUse">
<stop stop-color="#71A9FF"/>
<stop offset="1" stop-color="#415FFF"/>
</linearGradient>
</defs>
</svg>
