<svg width="24" height="24" viewBox="0 0 24 24" fill="none" xmlns="http://www.w3.org/2000/svg">
<path fill-rule="evenodd" clip-rule="evenodd" d="M7.5 0.998535C6.67157 0.998535 6 1.67011 6 2.49854V2.99854H5C3.89543 2.99854 3 3.89397 3 4.99854V18.9985C3 20.1031 3.89543 20.9985 5 20.9985H19C20.1046 20.9985 21 20.1031 21 18.9985V4.99854C21 3.89397 20.1046 2.99854 19 2.99854H18V2.49854C18 1.67011 17.3284 0.998535 16.5 0.998535C15.6716 0.998535 15 1.67011 15 2.49854V2.99854H9V2.49854C9 1.67011 8.32843 0.998535 7.5 0.998535ZM12 19C15.866 19 19 15.866 19 12C19 8.13401 15.866 5 12 5C8.13401 5 5 8.13401 5 12C5 15.866 8.13401 19 12 19Z" fill="url(#paint0_linear_36_6773)"/>
<path d="M9.98566 15.0796C9.54248 15.0796 9.14949 15.0038 8.80668 14.8523C8.46578 14.6989 8.19684 14.4877 7.99987 14.2188C7.8029 13.9498 7.70252 13.6402 7.69873 13.2898H9.1135C9.11919 13.4167 9.1599 13.5294 9.23566 13.6279C9.31142 13.7245 9.41464 13.8002 9.54532 13.8551C9.676 13.9101 9.82468 13.9375 9.99134 13.9375C10.158 13.9375 10.3048 13.9082 10.4317 13.8495C10.5605 13.7888 10.6609 13.7065 10.7328 13.6023C10.8048 13.4962 10.8398 13.375 10.8379 13.2387C10.8398 13.1023 10.801 12.9811 10.7215 12.875C10.6419 12.769 10.5292 12.6866 10.3834 12.6279C10.2395 12.5692 10.069 12.5398 9.87203 12.5398H9.30668V11.5398H9.87203C10.0444 11.5398 10.1959 11.5114 10.3266 11.4546C10.4591 11.3977 10.5624 11.3182 10.6362 11.2159C10.7101 11.1118 10.7461 10.9924 10.7442 10.858C10.7461 10.7273 10.7148 10.6127 10.6504 10.5142C10.5879 10.4138 10.4999 10.3362 10.3862 10.2813C10.2745 10.2263 10.1448 10.1989 9.99703 10.1989C9.84172 10.1989 9.70062 10.2263 9.57373 10.2813C9.44873 10.3362 9.3493 10.4138 9.27543 10.5142C9.20157 10.6146 9.16275 10.7311 9.15896 10.8637H7.81521C7.819 10.5171 7.91559 10.2121 8.10498 9.94889C8.29437 9.68373 8.55195 9.47635 8.87771 9.32673C9.20536 9.17711 9.57847 9.10229 9.99703 9.10229C10.4137 9.10229 10.7802 9.17521 11.0965 9.32104C11.4127 9.46688 11.659 9.66574 11.8351 9.91764C12.0112 10.1676 12.0993 10.4508 12.0993 10.7671C12.1012 11.0947 11.9942 11.3646 11.7783 11.5767C11.5643 11.7888 11.2887 11.9195 10.9516 11.9688V12.0142C11.4023 12.0673 11.7423 12.2131 11.9715 12.4517C12.2025 12.6904 12.3171 12.9887 12.3152 13.3466C12.3152 13.6837 12.2158 13.983 12.0169 14.2443C11.8199 14.5038 11.5453 14.7084 11.193 14.858C10.8427 15.0057 10.4402 15.0796 9.98566 15.0796Z" fill="#F9F9FA"/>
<path d="M15.7989 9.18184V15H14.3955V10.4943H14.3614L13.0602 11.2898V10.0739L14.4949 9.18184H15.7989Z" fill="#F9F9FA"/>
<defs>
<linearGradient id="paint0_linear_36_6773" x1="1.59361" y1="3.70623" x2="28.6788" y2="20.7013" gradientUnits="userSpaceOnUse">
<stop stop-color="#71A9FF"/>
<stop offset="1" stop-color="#415FFF"/>
</linearGradient>
</defs>
</svg>
