<svg width="24" height="24" viewBox="0 0 24 24" fill="none" xmlns="http://www.w3.org/2000/svg">
<path d="M19 2C19.5523 2 20 2.44772 20 3V5H22C22.5523 5 23 5.44772 23 6C23 6.55228 22.5523 7 22 7H20V9C20 9.55229 19.5523 10 19 10C18.4477 10 18 9.55229 18 9V7H16C15.4477 7 15 6.55228 15 6C15 5.44772 15.4477 5 16 5H18V3C18 2.44772 18.4477 2 19 2Z" fill="#9D9DA0"/>
<path d="M14 6C14 5.02691 14.6949 4.21614 15.6156 4.0369C15.4167 4.01255 15.2143 4 15.0091 4C12.2698 4 10.0182 6.24125 10.0182 8.99092V10.0182H8.99092C6.25162 10.0182 4 12.2594 4 15.0091C4 17.7484 6.24125 20 8.99092 20H20V10.7324C19.7058 10.9026 19.3643 11 19 11C17.8954 11 17 10.1046 17 9V8H16C14.8954 8 14 7.10457 14 6Z" fill="#9D9DA0"/>
</svg>
