<svg width="24" height="24" viewBox="0 0 24 24" fill="none" xmlns="http://www.w3.org/2000/svg">
<path fill-rule="evenodd" clip-rule="evenodd" d="M12 22C17.5228 22 22 17.5228 22 12C22 6.47715 17.5228 2 12 2C6.47715 2 2 6.47715 2 12C2 17.5228 6.47715 22 12 22ZM12.7316 6.82206C12.0042 6.67736 11.2502 6.75163 10.5649 7.03545C9.87971 7.31928 9.29404 7.79993 8.88199 8.41661C8.46993 9.0333 8.25 9.75832 8.25 10.5C8.25 10.9142 8.58579 11.25 9 11.25C9.41421 11.25 9.75 10.9142 9.75 10.5C9.75 10.055 9.88196 9.61998 10.1292 9.24997C10.3764 8.87996 10.7278 8.59157 11.139 8.42127C11.5501 8.25098 12.0025 8.20642 12.439 8.29323C12.8754 8.38005 13.2763 8.59434 13.591 8.90901C13.9057 9.22368 14.12 9.62459 14.2068 10.061C14.2936 10.4975 14.249 10.9499 14.0787 11.361C13.9084 11.7722 13.62 12.1236 13.25 12.3708C12.88 12.618 12.445 12.75 12 12.75C11.5858 12.75 11.25 13.0858 11.25 13.5V14.25C11.25 14.6642 11.5858 15 12 15C12.4142 15 12.75 14.6642 12.75 14.25V14.1742C13.224 14.0775 13.6772 13.8894 14.0834 13.618C14.7001 13.206 15.1807 12.6203 15.4645 11.9351C15.7484 11.2498 15.8226 10.4958 15.6779 9.76841C15.5333 9.04098 15.1761 8.3728 14.6516 7.84835C14.1272 7.3239 13.459 6.96675 12.7316 6.82206ZM13 17C13 17.5523 12.5523 18 12 18C11.4477 18 11 17.5523 11 17C11 16.4477 11.4477 16 12 16C12.5523 16 13 16.4477 13 17Z" fill="#9D9DA0"/>
</svg>
