<svg width="24" height="24" viewBox="0 0 24 24" fill="none" xmlns="http://www.w3.org/2000/svg">
<path d="M10.1025 3.76678C11.08 2.75535 12.6607 2.74444 13.6484 3.73456L20.1162 10.2258C20.688 10.7962 20.9999 11.5817 21 12.3996V19.299C21 20.2353 20.2619 21 19.3574 21.0002H4.64258C3.73808 21 3 20.2353 3 19.299V12.3781C3.00005 11.571 3.31196 10.8069 3.85254 10.2365L10.1025 3.76678ZM12 11.0002C10.3431 11.0002 9 12.3433 9 14.0002C9 15.657 10.3431 17.0002 12 17.0002C13.6569 17.0002 15 15.657 15 14.0002C15 12.3433 13.6569 11.0002 12 11.0002Z" fill="#9D9DA0"/>
</svg>
