<svg viewBox="0 0 18 18" width="18" height="18" xmlns="http://www.w3.org/2000/svg">
<path fill-rule="evenodd" clip-rule="evenodd" d="M8.29289 1.00005C8.68342 0.609522 9.31658 0.609523 9.70711 1.00005L14.2678 5.56071C14.7366 6.02955 15 6.66543 15 7.32847V14.5C15 15.8808 13.8807 17 12.5 17H5.5C4.11929 17 3 15.8808 3 14.5V7.32847C3 6.66543 3.26339 6.02955 3.73223 5.56071L8.29289 1.00005ZM9 1.70715L4.43934 6.26781C4.15804 6.54912 4 6.93065 4 7.32847V14.5C4 15.3285 4.67157 16 5.5 16H12.5C13.3284 16 14 15.3285 14 14.5V7.32847C14 6.93065 13.842 6.54912 13.5607 6.26781L9 1.70715ZM9 5.00005C9.55228 5.00005 10 5.44776 10 6.00005C10 6.55233 9.55228 7.00005 9 7.00005C8.44772 7.00005 8 6.55233 8 6.00005C8 5.44776 8.44772 5.00005 9 5.00005ZM6 9.00005H9C9.55228 9.00005 10 9.44776 10 10V12C10 12.5523 9.55228 13 9 13H7V15H6V9.00005ZM7 10V12H9V10H7Z" fill="currentColor"/>
</svg>

