<svg viewBox="0 0 18 18" width="18" height="18" xmlns="http://www.w3.org/2000/svg">
<path fill-rule="evenodd" clip-rule="evenodd" d="M2 4.5C2 3.11929 3.11929 2 4.5 2H13.5C14.8807 2 16 3.11929 16 4.5V13.5C16 14.8807 14.8807 16 13.5 16H4.5C3.11929 16 2 14.8807 2 13.5V4.5ZM4.5 3C3.67157 3 3 3.67157 3 4.5V13.5C3 14.3284 3.67157 15 4.5 15H13.5C14.3284 15 15 14.3284 15 13.5V4.5C15 3.67157 14.3284 3 13.5 3H4.5ZM4 5C4 4.44772 4.44772 4 5 4H6C6.55228 4 7 4.44772 7 5V6C7 6.55228 6.55228 7 6 7H5C4.44772 7 4 6.55228 4 6V5ZM6 5H5V6H6V5ZM10.5 6V5H11.5V6H13V7H10V8.5H12C12.5523 8.5 13 8.94771 13 9.5V11C13 11.5523 12.5523 12 12 12H11.5V13H10.5V12H9V11H12V9.5H10C9.44772 9.5 9 9.05228 9 8.5V7C9 6.44772 9.44772 6 10 6H10.5ZM5 13L5 9H6V13H5Z" fill="currentColor"/>
</svg>

