<svg viewBox="0 0 24 25" width="18" height="18" xmlns="http://www.w3.org/2000/svg">
<path d="M19.46 12.317v-1.418c0-4.113-3.348-7.462-7.461-7.462-4.114 0-7.462 3.349-7.462 7.462v1.418a4.48 4.48 0 0 0-3.452 5.27c.327 1.68 1.651 3.05 3.321 3.451.886.215 1.735.15 2.49-.112a.63.63 0 0 0 .439-.596v-7.276a.643.643 0 0 0-.43-.597 3.964 3.964 0 0 0-.503-.13v-1.428A5.601 5.601 0 0 1 12 5.303a5.601 5.601 0 0 1 5.596 5.596v1.427a4.99 4.99 0 0 0-.503.13.622.622 0 0 0-.43.598v7.275c0 .271.178.514.439.597a4.459 4.459 0 0 0 5.811-3.34 4.483 4.483 0 0 0-3.451-5.269Z" fill="currentColor"/>
</svg>

