<svg viewBox="0 0 18 18" width="18" height="18" xmlns="http://www.w3.org/2000/svg">
<path fill-rule="evenodd" clip-rule="evenodd" d="M4.5 3A1.5 1.5 0 0 0 3 4.5V5h12v-.5A1.5 1.5 0 0 0 13.5 3h-9ZM15 6H3v7.5A1.5 1.5 0 0 0 4.5 15h9a1.5 1.5 0 0 0 1.5-1.5V6ZM2 4.5A2.5 2.5 0 0 1 4.5 2h9A2.5 2.5 0 0 1 16 4.5v9a2.5 2.5 0 0 1-2.5 2.5h-9A2.5 2.5 0 0 1 2 13.5v-9ZM12 8h2v1h-2V8Zm-4 2.5a1.5 1.5 0 0 0-1.125-1.453l.25-.968A2.5 2.5 0 1 1 4 10.5h1a1.5 1.5 0 0 0 3 0Zm3-.5h3v1h-3v-1Zm1 2h2v1h-2v-1Z" fill="currentColor"/>
</svg>

