<svg viewBox="0 0 24 25" width="18" height="18" xmlns="http://www.w3.org/2000/svg">
<path d="M11.991 2.437c.124 0 .213.074.266.167l1.4 2.944 3.099.463a.293.293 0 0 1 .23.204c.035.11 0 .24-.07.315l-2.25 2.296.531 3.204a.174.174 0 0 1 .018.092.286.286 0 0 1-.284.296.323.323 0 0 1-.141-.036l-2.763-1.52L9.246 12.4l-.032.011c-.037.014-.068.026-.11.026a.29.29 0 0 1-.177-.055.291.291 0 0 1-.124-.297l.531-3.24-2.25-2.297c-.07-.092-.106-.204-.07-.315a.293.293 0 0 1 .23-.203l3.1-.482 1.382-2.944a.327.327 0 0 1 .265-.167ZM5.257 12.604c-.053-.093-.142-.167-.266-.167a.327.327 0 0 0-.266.167l-1.381 2.944-3.1.482a.293.293 0 0 0-.23.203c-.036.111 0 .223.07.315l2.25 2.296-.531 3.241a.291.291 0 0 0 .124.296.29.29 0 0 0 .177.056c.042 0 .073-.012.11-.026l.032-.011 2.78-1.537L7.79 22.38a.322.322 0 0 0 .141.038c.16 0 .284-.13.284-.297 0-.037 0-.055-.018-.092l-.531-3.204 2.25-2.296c.07-.075.105-.204.07-.315a.293.293 0 0 0-.23-.204l-3.1-.463-1.4-2.944ZM19.257 12.604c-.053-.093-.142-.167-.266-.167a.327.327 0 0 0-.265.167l-1.382 2.944-3.1.482a.293.293 0 0 0-.23.203c-.035.111 0 .223.07.315l2.25 2.296-.531 3.241a.291.291 0 0 0 .124.296.29.29 0 0 0 .177.056.294.294 0 0 0 .11-.026l.032-.011 2.78-1.537 2.764 1.518a.323.323 0 0 0 .141.038c.16 0 .284-.13.284-.297 0-.037 0-.055-.018-.092l-.531-3.204 2.25-2.296a.331.331 0 0 0 .07-.315.293.293 0 0 0-.23-.204l-3.1-.463-1.4-2.944Z" fill="currentColor"/>
</svg>

