<svg viewBox="0 0 18 23" width="18" height="18" xmlns="http://www.w3.org/2000/svg">
<path fill-rule="evenodd" clip-rule="evenodd" d="M3.8.704a2.5 2.5 0 0 1 3.75 2.14l3.77 1.01A3.5 3.5 0 1 1 12 7.769l-2.705 2.705a3.135 3.135 0 0 1-.827 3.956 6.846 6.846 0 0 1 4.548 4.413.781.781 0 0 1-.152.754 8.336 8.336 0 0 1-6.336 2.908 8.336 8.336 0 0 1-6.337-2.91.781.781 0 0 1-.152-.753 6.846 6.846 0 0 1 4.548-4.412 3.14 3.14 0 1 1 4.094-4.756l2.722-2.722a3.485 3.485 0 0 1-.367-2.139l-3.678-.986A2.5 2.5 0 1 1 3.8.703Z" fill="currentColor"/>
</svg>

