<svg width="24" height="24" viewBox="0 0 24 24" fill="none" xmlns="http://www.w3.org/2000/svg">
<path fill-rule="evenodd" clip-rule="evenodd" d="M5 2.99954C3.89543 2.99954 3 3.89497 3 4.99954V18.9995C3 20.1041 3.89543 20.9995 5 20.9995H19C20.1046 20.9995 21 20.1041 21 18.9995V4.99954C21 3.89497 20.1046 2.99954 19 2.99954H5ZM6.82152 14.2612C6.27782 14.137 5.73412 14.0128 4.99991 14.3964V18.0616C4.99991 18.575 5.42263 19 5.94548 19H18.0543C18.5772 19 18.9999 18.575 18.9999 18.0616V8.20867C18.8628 8.18563 18.7283 8.15473 18.5936 8.12378C18.0508 7.99907 17.5048 7.8736 16.7695 8.25835C16.0316 8.64243 15.8387 9.151 15.6459 9.65943C15.4536 10.1667 15.2613 10.6737 14.5279 11.0569C13.7937 11.4405 13.25 11.3164 12.7063 11.1922C12.1626 11.068 11.6189 10.9438 10.8847 11.3274C10.1477 11.711 9.95581 12.2189 9.76391 12.7267C9.57202 13.2345 9.38012 13.7423 8.64313 14.126C7.90893 14.5096 7.36522 14.3854 6.82152 14.2612Z" fill="#F9F9FA"/>
<circle cx="7" cy="6.99951" r="2" fill="url(#paint0_linear_36_6599)"/>
<defs>
<linearGradient id="paint0_linear_36_6599" x1="4.68747" y1="5.54105" x2="10.3323" y2="9.47658" gradientUnits="userSpaceOnUse">
<stop stop-color="#71A9FF"/>
<stop offset="1" stop-color="#415FFF"/>
</linearGradient>
</defs>
</svg>
