<svg width="24" height="24" viewBox="0 0 24 24" fill="none" xmlns="http://www.w3.org/2000/svg">
<path d="M21.7289 14.3719L20.7875 13.5601C20.5078 13.3188 20.3001 12.8254 20.3272 12.4644L20.3291 11.5338C20.3029 11.1719 20.5096 10.6794 20.7894 10.4381L21.7289 9.62812C22.0086 9.38685 22.0844 8.93243 21.8973 8.61859L19.9698 5.38322C19.7826 5.06939 19.3391 4.90522 18.9835 5.0195L17.7896 5.40317C17.435 5.51746 16.8904 5.4449 16.5797 5.24172L15.7479 4.78005C15.412 4.62132 15.0751 4.20045 14.9994 3.84581L14.7449 2.64581C14.67 2.29116 14.3023 2 13.928 2H10.0739C9.6996 2 9.33188 2.29116 9.25609 2.64581L9.00064 3.84127C8.92485 4.19683 8.588 4.61678 8.25209 4.77642L7.42213 5.24082C7.11148 5.44399 6.56784 5.51565 6.21228 5.40136L5.01647 5.01769C4.66091 4.9034 4.21739 5.06757 4.03025 5.38141L2.10366 8.61678C1.91652 8.93061 1.99231 9.38503 2.27115 9.6263L3.21246 10.4381C3.49223 10.6794 3.69902 11.1728 3.67282 11.5347L3.67001 12.4644C3.69621 12.8263 3.48848 13.3197 3.20965 13.561L2.27115 14.3719C1.99138 14.6132 1.91559 15.0676 2.10273 15.3814L4.03025 18.6168C4.21739 18.9306 4.66091 19.0939 5.01553 18.9805L6.20854 18.5977C6.56317 18.4834 7.10774 18.556 7.41839 18.7592L8.25022 19.2209C8.58707 19.3796 8.92392 19.8005 8.99971 20.156L9.25515 21.3542C9.33094 21.7088 9.69867 22 10.0729 22H13.9271C14.3013 22 14.6691 21.7098 14.7449 21.3542L15.0003 20.1587C15.0761 19.8032 15.4129 19.3832 15.7488 19.2236L16.5788 18.7592C16.8895 18.5569 17.4331 18.4844 17.7887 18.5986L18.9845 18.9823C19.34 19.0957 19.7835 18.9324 19.9698 18.6186L21.8973 15.3832C22.0844 15.0676 22.0086 14.6132 21.7289 14.3719ZM12.0005 17.61C8.80415 17.61 6.21322 15.0975 6.21322 11.9991C6.21322 8.90068 8.80415 6.38821 12.0005 6.38821C15.1968 6.38821 17.7877 8.89977 17.7877 11.9991C17.7877 15.0984 15.1968 17.61 12.0005 17.61Z" fill="#F9F9FA"/>
<path d="M12.001 9.5C10.6206 9.5 9.50098 10.6198 9.50098 12.0005C9.50098 13.3811 10.6206 14.5 12.001 14.5C13.3814 14.5 14.501 13.3811 14.501 12.0005C14.501 10.6189 13.3814 9.5 12.001 9.5Z" fill="url(#paint0_linear_36_6587)"/>
<defs>
<linearGradient id="paint0_linear_36_6587" x1="9.11031" y1="10.1769" x2="16.1664" y2="15.0963" gradientUnits="userSpaceOnUse">
<stop stop-color="#71A9FF"/>
<stop offset="1" stop-color="#415FFF"/>
</linearGradient>
</defs>
</svg>
