<svg width="24" height="24" viewBox="0 0 24 24" fill="none" xmlns="http://www.w3.org/2000/svg">
<path d="M18.5 9C17.6716 9 17 9.67157 17 10.5V19.5C17 20.3284 17.6716 21 18.5 21H19.5C20.3284 21 21 20.3284 21 19.5V10.5C21 9.67157 20.3284 9 19.5 9H18.5Z" fill="#F9F9FA"/>
<path d="M10 14.5C10 13.6716 10.6716 13 11.5 13H12.5C13.3284 13 14 13.6716 14 14.5V19.5C14 20.3284 13.3284 21 12.5 21H11.5C10.6716 21 10 20.3284 10 19.5V14.5Z" fill="#F9F9FA"/>
<path d="M3 16.4999C3 15.6715 3.67157 14.9999 4.5 14.9999H5.5C6.32843 14.9999 7 15.6715 7 16.4999V19.4999C7 20.3284 6.32843 20.9999 5.5 20.9999H4.5C3.67157 20.9999 3 20.3284 3 19.4999V16.4999Z" fill="#F9F9FA"/>
<path fill-rule="evenodd" clip-rule="evenodd" d="M20.7761 2.36944C21.1244 2.79808 21.0592 3.42788 20.6306 3.77615L13.1852 9.82547C12.5217 10.3645 11.589 10.4223 10.864 9.96923L8.14459 8.26959L4.70711 11.7071C4.31658 12.0976 3.68342 12.0976 3.29289 11.7071C2.90237 11.3166 2.90237 10.6834 3.29289 10.2929L6.73038 6.85538C7.38892 6.19684 8.41484 6.08 9.20459 6.57359L11.924 8.27324L19.3694 2.22392C19.798 1.87565 20.4279 1.94081 20.7761 2.36944Z" fill="url(#paint0_linear_36_6611)"/>
<defs>
<linearGradient id="paint0_linear_36_6611" x1="1.59361" y1="3.35384" x2="16.2542" y2="21.752" gradientUnits="userSpaceOnUse">
<stop stop-color="#71A9FF"/>
<stop offset="1" stop-color="#415FFF"/>
</linearGradient>
</defs>
</svg>
