<svg width="24" height="24" viewBox="0 0 24 24" fill="none" xmlns="http://www.w3.org/2000/svg">
<path fill-rule="evenodd" clip-rule="evenodd" d="M13.2143 1.79912C12.524 0.603392 10.995 0.193704 9.79925 0.88406C8.60351 1.57442 8.19383 3.10339 8.88418 4.29912C9.57454 5.49486 11.1035 5.90454 12.2992 5.21419C12.7946 4.9282 13.155 4.49829 13.3583 4.00777L17.0366 4.99338C17.0126 5.15879 17.0002 5.32795 17.0002 5.50001C17.0002 6.08955 17.146 6.64505 17.4034 7.13243L14.0003 10.5355L14.7074 11.2426L18.0004 7.94968C18.6356 8.59785 19.521 9.00002 20.5002 9.00002C22.4332 9.00002 24.0002 7.43301 24.0002 5.50001C24.0002 3.56702 22.4332 2.00001 20.5002 2.00001C19.0906 2.00001 17.8755 2.83337 17.321 4.0343L13.5496 3.02375C13.5457 2.60711 13.4375 2.1857 13.2143 1.79912Z" fill="url(#paint0_linear_36_6596)"/>
<path d="M14.4681 14.6108C15.1992 14.0357 15.6687 13.1431 15.6687 12.1407C15.6687 10.4062 14.2626 9 12.528 9C10.7934 9 9.38727 10.4062 9.38727 12.1407C9.38727 13.1428 9.8566 14.0353 10.5875 14.6104C8.44173 15.2448 6.73624 16.9048 6.03873 19.0226C5.95303 19.2829 6.01208 19.5683 6.19072 19.776C7.72296 21.5575 9.99359 22.6857 12.5277 22.6857C15.0613 22.6857 17.3315 21.558 18.8637 19.7771C19.0424 19.5694 19.1015 19.284 19.0159 19.0238C18.3187 16.9058 16.6136 15.2456 14.4681 14.6108Z" fill="#F9F9FA"/>
<defs>
<linearGradient id="paint0_linear_36_6596" x1="7.34157" y1="1.9965" x2="23.4251" y2="18.1981" gradientUnits="userSpaceOnUse">
<stop stop-color="#71A9FF"/>
<stop offset="1" stop-color="#415FFF"/>
</linearGradient>
</defs>
</svg>
