<svg width="24" height="24" viewBox="0 0 24 24" fill="none" xmlns="http://www.w3.org/2000/svg">
<path d="M13.2483 5.99642C13.7456 5.60516 14.065 4.99791 14.065 4.31606C14.065 3.1359 13.1083 2.1792 11.9281 2.1792C10.748 2.1792 9.79126 3.1359 9.79126 4.31606C9.79126 4.99787 10.1106 5.6051 10.6078 5.99636C9.19267 6.41492 8.05902 7.48919 7.55879 8.86728C7.46532 9.12479 7.525 9.41182 7.70864 9.61511C8.74892 10.7668 10.254 11.4905 11.9282 11.4905C13.6022 11.4905 15.1071 10.7669 16.1474 9.61551C16.3311 9.41223 16.3908 9.12521 16.2973 8.86769C15.7972 7.48947 14.6635 6.41506 13.2483 5.99642Z" fill="#F9F9FA"/>
<path d="M18.7144 15.661C19.2117 15.2697 19.531 14.6625 19.531 13.9806C19.531 12.8005 18.5743 11.8438 17.3942 11.8438C16.214 11.8438 15.2573 12.8005 15.2573 13.9806C15.2573 14.6624 15.5766 15.2697 16.0739 15.6609C14.6587 16.0795 13.5251 17.1537 13.0249 18.5318C12.9314 18.7893 12.9911 19.0764 13.1747 19.2797C14.215 20.4313 15.7201 21.1551 17.3943 21.1551C19.0682 21.1551 20.5732 20.4315 21.6135 19.2801C21.7971 19.0768 21.8568 18.7898 21.7634 18.5322C21.2633 17.154 20.1296 16.0796 18.7144 15.661Z" fill="#F9F9FA"/>
<path d="M8.59916 13.9806C8.59916 14.6625 8.2798 15.2697 7.78251 15.661C9.19772 16.0796 10.3314 17.154 10.8315 18.5322C10.925 18.7898 10.8652 19.0768 10.6816 19.2801C9.64131 20.4315 8.13635 21.1551 6.46238 21.1551C4.78822 21.1551 3.2831 20.4313 2.24282 19.2797C2.05918 19.0764 1.9995 18.7893 2.09297 18.5318C2.5932 17.1537 3.72685 16.0795 5.14202 15.6609C4.64476 15.2697 4.32544 14.6624 4.32544 13.9806C4.32544 12.8005 5.28214 11.8438 6.4623 11.8438C7.64245 11.8438 8.59916 12.8005 8.59916 13.9806Z" fill="#F9F9FA"/>
<path d="M13.2483 5.99642C13.7456 5.60516 14.065 4.99791 14.065 4.31606C14.065 3.1359 13.1083 2.1792 11.9281 2.1792C10.748 2.1792 9.79126 3.1359 9.79126 4.31606C9.79126 4.99787 10.1106 5.6051 10.6078 5.99636C9.19267 6.41492 8.05902 7.48919 7.55879 8.86728C7.46532 9.12479 7.525 9.41182 7.70864 9.61511C8.74892 10.7668 10.254 11.4905 11.9282 11.4905C13.6022 11.4905 15.1071 10.7669 16.1474 9.61551C16.3311 9.41223 16.3908 9.12521 16.2973 8.86769C15.7972 7.48947 14.6635 6.41506 13.2483 5.99642Z" fill="url(#paint0_linear_36_6605)"/>
<defs>
<linearGradient id="paint0_linear_36_6605" x1="6.82555" y1="3.43981" x2="19.7087" y2="11.9534" gradientUnits="userSpaceOnUse">
<stop stop-color="#71A9FF"/>
<stop offset="1" stop-color="#415FFF"/>
</linearGradient>
</defs>
</svg>
