<svg width="24" height="24" viewBox="0 0 24 24" fill="none" xmlns="http://www.w3.org/2000/svg">
<path d="M5 3C3.89543 3 3 3.89543 3 5V11C3 12.1046 3.89543 13 5 13H9C10.1046 13 11 12.1046 11 11V5C11 3.89543 10.1046 3 9 3H5Z" fill="#F9F9FA"/>
<path d="M15 11C13.8954 11 13 11.8954 13 13V19C13 20.1046 13.8954 21 15 21H19C20.1046 21 21 20.1046 21 19V13C21 11.8954 20.1046 11 19 11H15Z" fill="#F9F9FA"/>
<path d="M3 17C3 15.8954 3.89543 15 5 15H9C10.1046 15 11 15.8954 11 17V19C11 20.1046 10.1046 21 9 21H5C3.89543 21 3 20.1046 3 19V17Z" fill="#F9F9FA"/>
<path d="M17 9C18.6569 9 20 7.65685 20 6C20 4.34315 18.6569 3 17 3C15.3431 3 14 4.34315 14 6C14 7.65685 15.3431 9 17 9Z" fill="#F9F9FA"/>
<circle cx="17" cy="6" r="3" fill="url(#paint0_linear_36_6617)"/>
<defs>
<linearGradient id="paint0_linear_36_6617" x1="13.5312" y1="3.81231" x2="21.9985" y2="9.7156" gradientUnits="userSpaceOnUse">
<stop stop-color="#71A9FF"/>
<stop offset="1" stop-color="#415FFF"/>
</linearGradient>
</defs>
</svg>
