<svg width="24" height="24" viewBox="0 0 24 24" fill="none" xmlns="http://www.w3.org/2000/svg">
<circle cx="12" cy="12" r="10" fill="#F9F9FA"/>
<path fill-rule="evenodd" clip-rule="evenodd" d="M10.5649 7.03545C11.2502 6.75162 12.0042 6.67736 12.7316 6.82206C13.459 6.96675 14.1272 7.3239 14.6516 7.84835C15.1761 8.3728 15.5333 9.04098 15.6779 9.76841C15.8226 10.4958 15.7484 11.2498 15.4645 11.9351C15.1807 12.6203 14.7001 13.206 14.0834 13.618C13.6772 13.8894 13.224 14.0775 12.75 14.1742V14.25C12.75 14.6642 12.4142 15 12 15C11.5858 15 11.25 14.6642 11.25 14.25V13.5C11.25 13.0858 11.5858 12.75 12 12.75C12.445 12.75 12.88 12.618 13.25 12.3708C13.62 12.1236 13.9084 11.7722 14.0787 11.361C14.249 10.9499 14.2936 10.4975 14.2068 10.061C14.12 9.62459 13.9057 9.22368 13.591 8.90901C13.2763 8.59434 12.8754 8.38005 12.439 8.29323C12.0025 8.20642 11.5501 8.25098 11.139 8.42127C10.7278 8.59157 10.3764 8.87996 10.1292 9.24997C9.88196 9.61998 9.75 10.055 9.75 10.5C9.75 10.9142 9.41421 11.25 9 11.25C8.58579 11.25 8.25 10.9142 8.25 10.5C8.25 9.75832 8.46993 9.0333 8.88199 8.41661C9.29404 7.79993 9.87971 7.31928 10.5649 7.03545Z" fill="url(#paint0_linear_36_6590)"/>
<path d="M12 18C12.5523 18 13 17.5523 13 17C13 16.4477 12.5523 16 12 16C11.4477 16 11 16.4477 11 17C11 17.5523 11.4477 18 12 18Z" fill="url(#paint1_linear_36_6590)"/>
<defs>
<linearGradient id="paint0_linear_36_6590" x1="7.664" y1="8.27308" x2="20.5985" y2="14.2849" gradientUnits="userSpaceOnUse">
<stop stop-color="#71A9FF"/>
<stop offset="1" stop-color="#415FFF"/>
</linearGradient>
<linearGradient id="paint1_linear_36_6590" x1="7.664" y1="8.27308" x2="20.5985" y2="14.2849" gradientUnits="userSpaceOnUse">
<stop stop-color="#71A9FF"/>
<stop offset="1" stop-color="#415FFF"/>
</linearGradient>
</defs>
</svg>
