<svg width="24" height="24" viewBox="0 0 24 24" fill="none" xmlns="http://www.w3.org/2000/svg">
<path d="M19.2568 12.1667C19.2037 12.0741 19.1151 12 18.9911 12C18.8849 12 18.7786 12.0741 18.7255 12.1667L17.3439 15.1111L14.2442 15.5926C14.1379 15.6111 14.0493 15.6852 14.0139 15.7963C13.9785 15.9074 14.0139 16.0185 14.0847 16.1111L16.3343 18.4074L15.8029 21.6481C15.7852 21.7593 15.8206 21.8704 15.9269 21.9444C15.98 21.9815 16.0331 22 16.104 22C16.1571 22 16.1925 21.9815 16.2457 21.963L19.0266 20.4259L21.7897 21.9444C21.8252 21.963 21.8783 21.9815 21.9314 21.9815C22.0909 21.9815 22.2148 21.8519 22.2148 21.6852C22.2148 21.6481 22.2148 21.6296 22.1971 21.5926L21.6657 18.3889L23.9153 16.0926C23.9861 16.0185 24.0215 15.8889 23.9861 15.7778C23.9507 15.6667 23.8621 15.5926 23.7558 15.5741L20.6561 15.1111L19.2568 12.1667Z" fill="url(#paint0_linear_36_6593)"/>
<path d="M5.25683 12.1667C5.2037 12.0741 5.11513 12 4.99114 12C4.88487 12 4.77859 12.0741 4.72545 12.1667L3.34387 15.1111L0.244162 15.5926C0.137886 15.6111 0.0493227 15.6852 0.0138975 15.7963C-0.0215277 15.9074 0.0138975 16.0185 0.084748 16.1111L2.33425 18.4074L1.80287 21.6481C1.78516 21.7593 1.82058 21.8704 1.92686 21.9444C1.98 21.9815 2.03314 22 2.10399 22C2.15712 22 2.19255 21.9815 2.24569 21.963L5.02657 20.4259L7.78974 21.9444C7.82516 21.963 7.8783 21.9815 7.93144 21.9815C8.09085 21.9815 8.21484 21.8519 8.21484 21.6852C8.21484 21.6481 8.21484 21.6296 8.19713 21.5926L7.66575 18.3889L9.91525 16.0926C9.9861 16.0185 10.0215 15.8889 9.9861 15.7778C9.95068 15.6667 9.86211 15.5926 9.75584 15.5741L6.65613 15.1111L5.25683 12.1667Z" fill="url(#paint1_linear_36_6593)"/>
<path d="M12.2568 2.16667C12.2037 2.07407 12.1151 2 11.9911 2C11.8849 2 11.7786 2.07407 11.7255 2.16667L10.3439 5.11111L7.24416 5.59259C7.13789 5.61111 7.04932 5.68519 7.0139 5.7963C6.97847 5.90741 7.0139 6.01852 7.08475 6.11111L9.33425 8.40741L8.80287 11.6481C8.78516 11.7593 8.82058 11.8704 8.92686 11.9444C8.98 11.9815 9.03314 12 9.10399 12C9.15712 12 9.19255 11.9815 9.24569 11.963L12.0266 10.4259L14.7897 11.9444C14.8252 11.963 14.8783 11.9815 14.9314 11.9815C15.0909 11.9815 15.2148 11.8519 15.2148 11.6852C15.2148 11.6481 15.2148 11.6296 15.1971 11.5926L14.6657 8.38889L16.9153 6.09259C16.9861 6.01852 17.0215 5.88889 16.9861 5.77778C16.9507 5.66667 16.8621 5.59259 16.7558 5.57407L13.6561 5.11111L12.2568 2.16667Z" fill="#F9F9FA"/>
<defs>
<linearGradient id="paint0_linear_36_6593" x1="13.2187" y1="13.3538" x2="27.3309" y2="23.1927" gradientUnits="userSpaceOnUse">
<stop stop-color="#71A9FF"/>
<stop offset="1" stop-color="#415FFF"/>
</linearGradient>
<linearGradient id="paint1_linear_36_6593" x1="-0.781329" y1="13.3538" x2="13.3309" y2="23.1927" gradientUnits="userSpaceOnUse">
<stop stop-color="#71A9FF"/>
<stop offset="1" stop-color="#415FFF"/>
</linearGradient>
</defs>
</svg>
