<svg width="24" height="24" viewBox="0 0 24 24" fill="none" xmlns="http://www.w3.org/2000/svg">
<path d="M12.8 5H11.2V9H6C3.79086 9 2 10.7909 2 13V16C2 18.2091 3.79086 20 6 20H18C20.2091 20 22 18.2091 22 16V13C22 10.7909 20.2091 9 18 9H12.8V5Z" fill="url(#paint0_linear_36_6755)"/>
<circle cx="12" cy="4.5" r="2.5" fill="#F9F9FA"/>
<path d="M9 14.5C9 15.3284 8.32843 16 7.5 16C6.67157 16 6 15.3284 6 14.5C6 13.6716 6.67157 13 7.5 13C8.32843 13 9 13.6716 9 14.5Z" fill="#F9F9FA"/>
<path d="M18 14.5C18 15.3284 17.3284 16 16.5 16C15.6716 16 15 15.3284 15 14.5C15 13.6716 15.6716 13 16.5 13C17.3284 13 18 13.6716 18 14.5Z" fill="#F9F9FA"/>
<defs>
<linearGradient id="paint0_linear_36_6755" x1="0.437343" y1="7.03077" x2="22.9377" y2="27.9467" gradientUnits="userSpaceOnUse">
<stop stop-color="#71A9FF"/>
<stop offset="1" stop-color="#415FFF"/>
</linearGradient>
</defs>
</svg>
