<svg width="24" height="24" viewBox="0 0 24 24" fill="none" xmlns="http://www.w3.org/2000/svg">
<path d="M15.6156 4.0369C14.6949 4.21614 14 5.02691 14 6C14 7.10457 14.8954 8 16 8H17V9C17 10.1046 17.8954 11 19 11C19.3643 11 19.7058 10.9026 20 10.7324V20H8.99092C6.24125 20 4 17.7484 4 15.0091C4 12.2594 6.25162 10.0182 8.99092 10.0182H10.0182V8.99092C10.0182 6.24125 12.2698 4 15.0091 4C15.2143 4 15.4167 4.01255 15.6156 4.0369Z" fill="url(#paint0_linear_36_6764)"/>
<path d="M20 3C20 2.44772 19.5523 2 19 2C18.4477 2 18 2.44772 18 3V5H16C15.4477 5 15 5.44772 15 6C15 6.55228 15.4477 7 16 7H18V9C18 9.55229 18.4477 10 19 10C19.5523 10 20 9.55229 20 9V7H22C22.5523 7 23 6.55228 23 6C23 5.44772 22.5523 5 22 5H20V3Z" fill="#F9F9FA"/>
<defs>
<linearGradient id="paint0_linear_36_6764" x1="2.74987" y1="6.16615" x2="25.3294" y2="21.9083" gradientUnits="userSpaceOnUse">
<stop stop-color="#71A9FF"/>
<stop offset="1" stop-color="#415FFF"/>
</linearGradient>
</defs>
</svg>
