<svg width="18" height="18" viewBox="0 0 18 18" fill="none" xmlns="http://www.w3.org/2000/svg">
<path fill-rule="evenodd" clip-rule="evenodd" d="M3.5 3C2.67157 3 2 3.67157 2 4.5V12.5C2 13.3284 2.67157 14 3.5 14H14.5C15.3284 14 16 13.3284 16 12.5V6.5C16 5.67157 15.3284 5 14.5 5H9.61803C8.74344 5 7.94392 4.50587 7.55279 3.72361C7.33105 3.28013 6.87779 3 6.38197 3H3.5ZM1 4.5C1 3.11929 2.11929 2 3.5 2H6.38197C7.25656 2 8.05608 2.49413 8.44721 3.27639C8.66895 3.71987 9.12221 4 9.61803 4H14.5C15.8807 4 17 5.11929 17 6.5V12.5C17 13.8807 15.8807 15 14.5 15H3.5C2.11929 15 1 13.8807 1 12.5V4.5ZM6 5H3V4H6V5ZM11 8C11 7.44772 11.4477 7 12 7H14V8H12V11H14V12H12C11.4477 12 11 11.5523 11 11V8Z" fill="#24242B"/>
</svg>
