<svg width="18" height="18" viewBox="0 0 18 18" fill="none" xmlns="http://www.w3.org/2000/svg">
<path fill-rule="evenodd" clip-rule="evenodd" d="M5.5 2C4.67157 2 4 2.67157 4 3.5C4 4.32843 4.67157 5 5.5 5C6.32843 5 7 4.32843 7 3.5C7 2.67157 6.32843 2 5.5 2ZM3 3.5C3 2.11929 4.11929 1 5.5 1C6.88071 1 8 2.11929 8 3.5C8 4.88071 6.88071 6 5.5 6C4.11929 6 3 4.88071 3 3.5ZM13.5 2C12.6716 2 12 2.67157 12 3.5C12 4.32843 12.6716 5 13.5 5C14.3284 5 15 4.32843 15 3.5C15 2.67157 14.3284 2 13.5 2ZM11 3.5C11 2.11929 12.1193 1 13.5 1C14.8807 1 16 2.11929 16 3.5C16 4.88071 14.8807 6 13.5 6C12.1193 6 11 4.88071 11 3.5ZM1 10.5C1 8.567 2.567 7 4.5 7H5V8H4.5C3.11929 8 2 9.11929 2 10.5V11H1V10.5ZM9 8C8.17157 8 7.5 8.67157 7.5 9.5C7.5 10.3284 8.17157 11 9 11C9.82843 11 10.5 10.3284 10.5 9.5C10.5 8.67157 9.82843 8 9 8ZM6.5 9.5C6.5 8.11929 7.61929 7 9 7C10.3807 7 11.5 8.11929 11.5 9.5C11.5 10.8807 10.3807 12 9 12C7.61929 12 6.5 10.8807 6.5 9.5ZM13.5 8H13V7H13.5C15.433 7 17 8.567 17 10.5V11H16V10.5C16 9.11929 14.8807 8 13.5 8ZM4.5 16.5C4.5 14.567 6.067 13 8 13H10C11.933 13 13.5 14.567 13.5 16.5V17H12.5V16.5C12.5 15.1193 11.3807 14 10 14H8C6.61929 14 5.5 15.1193 5.5 16.5V17H4.5V16.5Z" fill="#24242B"/>
</svg>
