<svg width="18" height="18" viewBox="0 0 18 18" fill="none" xmlns="http://www.w3.org/2000/svg">
<path fill-rule="evenodd" clip-rule="evenodd" d="M4.5 3C3.67157 3 3 3.67157 3 4.5V5H15V4.5C15 3.67157 14.3284 3 13.5 3H4.5ZM15 6H3V13.5C3 14.3284 3.67157 15 4.5 15H13.5C14.3284 15 15 14.3284 15 13.5V6ZM2 4.5C2 3.11929 3.11929 2 4.5 2H13.5C14.8807 2 16 3.11929 16 4.5V13.5C16 14.8807 14.8807 16 13.5 16H4.5C3.11929 16 2 14.8807 2 13.5V4.5ZM12 8H14V9H12V8ZM8 10.5C8 9.80172 7.52244 9.21375 6.87537 9.04721L7.12463 8.07877C8.20279 8.35627 9 9.33439 9 10.5C9 11.8807 7.88071 13 6.5 13C5.11929 13 4 11.8807 4 10.5H5C5 11.3284 5.67157 12 6.5 12C7.32843 12 8 11.3284 8 10.5ZM11 10L14 9.99998L14 11L11 11L11 10ZM12 12H14V13H12V12Z" fill="#24242B"/>
</svg>
