<svg viewBox="0 0 18 18" width="18" height="18" xmlns="http://www.w3.org/2000/svg">
<path d="M6.32123 2.53285C7.74487 1.94315 9.32331 1.8397 10.8117 2.23852L11.0706 1.2726C9.3695 0.816797 7.56557 0.935033 5.93855 1.60897C4.31152 2.2829 2.95235 3.47487 2.07181 5C1.19127 6.52514 0.838586 8.2982 1.06845 10.0442C1.29832 11.7902 2.09789 13.4116 3.34316 14.6569C4.58842 15.9021 6.20979 16.7017 7.9558 16.9316C9.70181 17.1614 11.4749 16.8087 13 15.9282C14.5251 15.0477 15.7171 13.6885 16.391 12.0615C17.065 10.4345 17.1832 8.63052 16.7274 6.92945L15.7615 7.18827C16.1603 8.6767 16.0569 10.2551 15.4672 11.6788C14.8775 13.1024 13.8345 14.2917 12.5 15.0622C11.1655 15.8327 9.61408 16.1412 8.08633 15.9401C6.55857 15.739 5.13987 15.0394 4.05026 13.9497C2.96065 12.8601 2.26103 11.4414 2.0599 9.91368C1.85876 8.38593 2.16736 6.83449 2.93783 5.5C3.7083 4.16551 4.89759 3.12254 6.32123 2.53285Z" fill="currentColor"/>
<path d="M14 1V3.29289L8.64648 8.64645L9.35359 9.35355L14.7071 4H17V3H15V1H14Z" fill="currentColor"/>
<path d="M8.29289 8.29292C8.20003 8.38578 8.12638 8.49602 8.07612 8.61735C8.02587 8.73867 8 8.86871 8 9.00003C8 9.13135 8.02587 9.26139 8.07612 9.38271C8.12638 9.50404 8.20003 9.61428 8.29289 9.70714C8.38575 9.79999 8.49599 9.87365 8.61732 9.92391C8.73864 9.97416 8.86868 10 9 10C9.13132 10 9.26136 9.97416 9.38268 9.92391C9.50401 9.87365 9.61425 9.79999 9.70711 9.70714L10.4142 10.4142C10.2285 10.6 10.008 10.7473 9.76537 10.8478C9.52272 10.9483 9.26264 11 9 11C8.73736 11 8.47728 10.9483 8.23463 10.8478C7.99198 10.7473 7.7715 10.6 7.58579 10.4142C7.40007 10.2285 7.25275 10.008 7.15224 9.7654C7.05173 9.52275 7 9.26267 7 9.00003C7 8.73739 7.05173 8.47731 7.15224 8.23466C7.25275 7.99201 7.40007 7.77153 7.58579 7.58582L8.29289 8.29292Z" fill="currentColor"/>
<path d="M7.46927 5.30448C8.28278 4.96752 9.18475 4.9084 10.0353 5.1363L10.2941 4.17037C9.23094 3.8855 8.10348 3.9594 7.08659 4.3806C6.0697 4.80181 5.22022 5.54679 4.66988 6.5C4.11954 7.45321 3.89912 8.56138 4.04278 9.65263C4.18645 10.7439 4.68618 11.7572 5.46447 12.5355C6.24276 13.3138 7.25612 13.8136 8.34737 13.9572C9.43863 14.1009 10.5468 13.8805 11.5 13.3301C12.4532 12.7798 13.1982 11.9303 13.6194 10.9134C14.0406 9.89653 14.1145 8.76907 13.8296 7.70591L12.8637 7.96473C13.0916 8.81526 13.0325 9.71723 12.6955 10.5307C12.3586 11.3442 11.7626 12.0238 11 12.4641C10.2374 12.9044 9.35091 13.0807 8.4779 12.9658C7.6049 12.8508 6.79421 12.4511 6.17158 11.8284C5.54895 11.2058 5.14916 10.3951 5.03423 9.52211C4.91929 8.6491 5.09564 7.76257 5.53591 7C5.97617 6.23743 6.65576 5.64145 7.46927 5.30448Z" fill="currentColor"/>
</svg>

