<svg preserveAspectRatio="none" width="100%" height="100%" overflow="visible" style="display: block;" viewBox="0 0 15 15" fill="none" xmlns="http://www.w3.org/2000/svg">
<path id="Icon" fill-rule="evenodd" clip-rule="evenodd" d="M6 1C3.23858 1 1 3.23858 1 6C1 8.76142 3.23858 11 6 11C8.76142 11 11 8.76142 11 6C11 3.23858 8.76142 1 6 1ZM0 6C0 2.68629 2.68629 0 6 0C9.31371 0 12 2.68629 12 6C12 7.47686 11.4664 8.82909 10.5815 9.87443L14.8536 14.1465L14.1465 14.8536L9.87441 10.5815C8.82907 11.4664 7.47685 12 6 12C2.68629 12 0 9.31371 0 6Z" fill="var(--fill-0, #24242B)"/>
</svg>
